<svg xmlns="http://www.w3.org/2000/svg" viewBox="0 0 12.66 12.68"><defs><style>.a{fill:#1a1a1a;}</style></defs><title>cake</title><path class="a" d="M9.79,3.17A1.07,1.07,0,0,0,10.94,2c0-.88-1.15-2-1.15-2S8.64,1.08,8.64,2A1.07,1.07,0,0,0,9.79,3.17Z"/><path class="a" d="M6.25,3.17A1.07,1.07,0,0,0,7.4,2c0-.88-1.15-2-1.15-2S5.1,1.08,5.1,2A1.07,1.07,0,0,0,6.25,3.17Z"/><path class="a" d="M2.71,3.17A1.07,1.07,0,0,0,3.86,2c0-.88-1.15-2-1.15-2S1.55,1.08,1.55,2A1.08,1.08,0,0,0,2.71,3.17Z"/><path class="a" d="M12.24,11.88V7.6a1.4,1.4,0,0,0-1.4-1.4h-.55V3.77h-1V6.2H6.75V3.77h-1V6.2H3.21V3.77h-1V6.2H1.83A1.4,1.4,0,0,0,.43,7.6v4.28H0v.8H12.66v-.8ZM1.83,7h9a.6.6,0,0,1,.6.6V9.34l-1.31-.61A1.36,1.36,0,0,0,9,8.73l-1.3.61a.62.62,0,0,1-.5,0l-1.3-.61a1.37,1.37,0,0,0-1.17,0l-1.3.61a.62.62,0,0,1-.5,0L1.23,8.57v-1A.6.6,0,0,1,1.83,7Zm-.6,2.45,1.31.61a1.36,1.36,0,0,0,1.18,0L5,9.45a.62.62,0,0,1,.5,0l1.29.61a1.36,1.36,0,0,0,1.18,0l1.3-.61a.62.62,0,0,1,.5,0l1.65.78v1.65H1.23Z"/></svg>