<svg xmlns="http://www.w3.org/2000/svg" viewBox="0 0 12 11.84"><defs><style>.a{fill:#1a1a1a;}</style></defs><title>class</title><path class="a" d="M2.5,4V11H1V4H2.5m.8-.8H.24v8.69H3.3V3.15Z"/><path class="a" d="M.51,2a.49.49,0,0,1-.4-.2.51.51,0,0,1,.08-.71l1.27-1A.51.51,0,0,1,1.77,0a.52.52,0,0,1,.32.11l1.26,1A.51.51,0,0,1,3,2a.52.52,0,0,1-.32-.11l-1-.76-.95.76A.51.51,0,0,1,.51,2Z"/><path class="a" d="M11,8.29V11H9.5V8.29H11m.8-.8H8.7v4.35h3.06V7.49Z"/><path class="a" d="M11.49,6.43a.51.51,0,0,1-.31-.11l-.95-.75-1,.75A.52.52,0,0,1,9,6.43a.47.47,0,0,1-.39-.2.5.5,0,0,1,.08-.71l1.26-1a.52.52,0,0,1,.32-.11.51.51,0,0,1,.31.11l1.27,1a.51.51,0,0,1-.32.91Z"/><path class="a" d="M6.73,6.25V11H5.27V6.25H6.73m.8-.8H4.47v6.39H7.53V5.45Z"/><path class="a" d="M4.73,4.28a.49.49,0,0,1-.39-.19.51.51,0,0,1,.08-.72l1.27-1a.49.49,0,0,1,.62,0l1.27,1a.51.51,0,0,1,.08.72.5.5,0,0,1-.4.19A.51.51,0,0,1,7,4.17L6,3.42l-1,.75A.52.52,0,0,1,4.73,4.28Z"/></svg>