<svg xmlns="http://www.w3.org/2000/svg" viewBox="0 0 9.44 9.61"><title>outline_3</title><g id="레이어_2" data-name="레이어 2"><g id="Layer_16" data-name="Layer 16"><path d="M8.76,5.53V6.62a.93.93,0,0,1-.26.66.9.9,0,0,1-.66.27H6.33a.9.9,0,0,1-.66-.27.93.93,0,0,1-.26-.66V5.53H4.73V6.62A1.52,1.52,0,0,0,5.2,7.75a1.55,1.55,0,0,0,1.13.47h.42v.71H5.67v.68H8.5V8.93H7.42V8.22h.42A1.55,1.55,0,0,0,9,7.75a1.52,1.52,0,0,0,.47-1.13V5.53Z"/><path d="M6.09,3.51h0A.46.46,0,0,0,6,3.84V6.42a.46.46,0,0,0,.46.47H7.75a.46.46,0,0,0,.46-.47V3.84a.48.48,0,0,0-.13-.33.49.49,0,0,0-.33-.14H6.42A.49.49,0,0,0,6.09,3.51Z"/><path d="M.72,1.47h.93V2.75H5.82V1.47h.93V2.65h.72V.75H4.71a1,1,0,0,0-1-.74,1,1,0,0,0-1,.74H0v8.6H4.73V8.63h-4Zm3-.75A.42.42,0,0,1,4,.83a.39.39,0,0,1,.11.28v.36h1V2H2.33V1.47h1V1.11A.39.39,0,0,1,3.45.83.41.41,0,0,1,3.73.72Z"/></g></g></svg>