<svg xmlns="http://www.w3.org/2000/svg" viewBox="0 0 14.8 13.84"><defs><style>.cls-1{fill:#1a1a1a;}</style></defs><title>player_1</title><g id="레이어_2" data-name="레이어 2"><g id="Layer_16" data-name="Layer 16"><path class="cls-1" d="M1.52,7.64,2.72,4.3a2,2,0,0,0,.35.06,2,2,0,0,0,1.8-1.54A2.08,2.08,0,0,0,4,.08,2.07,2.07,0,0,0,1.56,1.64,2,2,0,0,0,2,4L.77,7.37Zm.79-5.73A1.52,1.52,0,0,1,3.51.8a.64.64,0,0,1,.2,0c.48.17.67,1,.4,1.72s-.79,1.15-1.35,1S2,2.71,2.31,1.91Z"/><path class="cls-1" d="M4.87,6.21A2.25,2.25,0,0,0,6,7.43a2.17,2.17,0,0,0,.84.19,1.51,1.51,0,0,0,.53-.09,1.9,1.9,0,0,0,1-1.06,2.21,2.21,0,0,0,0-1.62A2.25,2.25,0,0,0,7.37,3.58a1.85,1.85,0,0,0-1.48-.05A1.94,1.94,0,0,0,4.87,6.21ZM6.18,4.28a1,1,0,0,1,.41-.08A.94.94,0,0,1,7,4.3a1.44,1.44,0,0,1,.67.83,1.44,1.44,0,0,1,0,1,1.09,1.09,0,0,1-.53.61,1.11,1.11,0,0,1-.76-.08,1.45,1.45,0,0,1-.76-.78A1.15,1.15,0,0,1,6.18,4.28Z"/><path class="cls-1" d="M14.64,4.78A1.19,1.19,0,0,0,13,4.36L8.31,7.12,5.88,8.24l-1.8,1L1.68,7.9a1.19,1.19,0,0,0-1,2.15l3,1.67a1.2,1.2,0,0,0,1.09-.05l1.4-.82.07,1-.09,2h4v-.4c0-.75,0-2,0-2.31L9.84,9l4.37-2.57A1.19,1.19,0,0,0,14.64,4.78Zm-.83.94L9,8.55l.28,2.66v0c0,.13,0,1,0,1.8H6.94L7,11.82,6.84,9.5,4.33,11A.52.52,0,0,1,4,11L1,9.34a.39.39,0,0,1,.29-.73l2.76,1.6L6.25,9,8.68,7.83l4.73-2.78a.4.4,0,0,1,.3,0,.48.48,0,0,1,.24.18A.41.41,0,0,1,13.81,5.72Z"/></g></g></svg>