<?xml version="1.0" encoding="utf-8"?>
<!-- Generator: Adobe Illustrator 22.0.1, SVG Export Plug-In . SVG Version: 6.00 Build 0)  -->
<svg version="1.1" id="arrow_b" xmlns="http://www.w3.org/2000/svg" xmlns:xlink="http://www.w3.org/1999/xlink" x="0px" y="0px"
	 viewBox="0 0 30 30" style="enable-background:new 0 0 30 30;" xml:space="preserve">
<style type="text/css">
	.st0{fill:#444545;}
</style>
<title>arrow_b</title>
<path class="st0" d="M20,12.9c0,0.1,0,0.2-0.1,0.2l-4.7,4.7c-0.1,0.1-0.3,0.1-0.4,0c0,0,0,0,0,0l-4.7-4.7c-0.1-0.1-0.1-0.3,0-0.4
	c0,0,0,0,0,0l0.5-0.5c0.1-0.1,0.1-0.1,0.2-0.1c0.1,0,0.2,0,0.2,0.1l4,3.9l4-3.9c0.1-0.1,0.1-0.1,0.2-0.1c0.1,0,0.2,0,0.2,0.1
	l0.5,0.5C20,12.7,20,12.8,20,12.9z"/>
</svg>
