<svg xmlns="http://www.w3.org/2000/svg" xmlns:xlink="http://www.w3.org/1999/xlink" viewBox="0 0 250 250"><defs><style>.a{isolation:isolate;}.b{fill:#edeff0;mix-blend-mode:color;}.c{fill:url(#a);}.d{fill:#999;}.e{fill:#9a9a9a;}.f{fill:#979797;}.g{fill:#424242;stroke:#3a424b;stroke-miterlimit:10;stroke-width:0.04px;}</style><linearGradient id="a" x1="43.25" y1="118.64" x2="206.75" y2="118.64" gradientUnits="userSpaceOnUse"><stop offset="0" stop-color="#b3b3b3"/><stop offset="1" stop-color="#a0a0a0"/></linearGradient></defs><title>club-photo</title><g class="a"><rect class="b" width="250" height="250"/><path class="c" d="M205.62,110.25c-3.32-16.48-14.19-30.31-28.34-39.38S146,58,129.16,58.76c-25.45,1.15-50.27,12.16-67.35,31.06-8.2,9.07-14.68,19.89-17.35,31.82-2.87,12.87-.72,35.17,7.43,41.57C47,129.4,58.7,106.65,77.17,90.05s45-23.8,69.44-19.43c13,2.31,25.68,8,34.91,17.53s14.81,21.81,14.63,35c-.2,14.54-7.28,28.33-16.89,39.25-.79.89-1.68,1.68-2.5,2.54v13.67a71.63,71.63,0,0,0,23.92-29.12C206.1,137.24,208.27,123.38,205.62,110.25Z"/><path class="d" d="M86.16,191.33c-2.9,0-3.93-1.28-3.93-4.67V132H99.86v46.75c0,4.13-7.57,12.58-10.39,12.58Z"/><path class="e" d="M156,191.33c-2.41,0-3.74-1.79-3.74-4.73v-21c0-6.31,1-20.73-13.31-20.73H125.73s0,3.81,0,5.6l0,14.35v26.47H108.05l0-59.35s23.22-.29,34.86.21,22,3.84,25.56,20.09a56,56,0,0,1,1.37,12.43v14.44c0,4.11-7.81,12.18-10.52,12.18Z"/><path class="f" d="M73.3,111.85c-.27,0-5,11.34,5.8,13.35,0,0-8.43,4.14-10.88-2.25C66.12,117.49,73.3,111.85,73.3,111.85Z"/><path class="f" d="M89.71,88.12c.27,0,7.49.53,7.49.53L76.68,111.88Z"/><polygon class="f" points="94.79 98.13 101.07 100.46 76.88 115.29 94.79 98.13"/><polygon class="f" points="108.31 99.02 108.84 105.84 78.15 118.5 108.31 99.02"/><path class="f" d="M106.9,110.59l-1.28,6.79S79.76,121,80,121C81.83,121,104.5,111.51,106.9,110.59Z"/><path class="g" d="M129.57,102.76c0,2.89-2.84,6.3-5.42,6.3h-5.67a3.1,3.1,0,0,1-2.32-.9,3.4,3.4,0,0,1-.89-2.52V96.82a5.3,5.3,0,0,1,.93-3.26,3.78,3.78,0,0,1,3.21-1.24h6.77a3.2,3.2,0,0,1,2.52,1,3.74,3.74,0,0,1,.87,2.59Zm-3-.36V97.18c0-1.45-.93-1.48-1.35-1.48h-5.37c-1,0-1.61.07-1.61,1.71v6.84c0,1.3.35,1.53,1.14,1.53h4.27C125.29,105.78,126.6,103.8,126.6,102.4Zm13.59,5.87a1.35,1.35,0,0,1-.46,1,1.59,1.59,0,0,1-1.1.42,1.64,1.64,0,0,1-1.14-.42,1.36,1.36,0,0,1-.47-1V91.82a1.52,1.52,0,0,1,.47-1.13,1.58,1.58,0,0,1,1.14-.45,1.53,1.53,0,0,1,1.1.45,1.51,1.51,0,0,1,.46,1.13Z"/><path class="g" d="M161.68,108.55a1.75,1.75,0,0,0,0-2.28,1.28,1.28,0,0,0-1-.49H151c-1.15,0-1.14-1-1.14-1.53v-2.34h9.59a1.19,1.19,0,0,0,1-.48,2,2,0,0,0,0-2.38,1.19,1.19,0,0,0-1-.48h-9.59V96.41c0-.54-.19-1.8,1.69-1.8h8a1.18,1.18,0,0,0,.95-.54,1.77,1.77,0,0,0,0-2.16,1.18,1.18,0,0,0-.95-.54H151a3.84,3.84,0,0,0-3,1.31,4.52,4.52,0,0,0-1.18,3.15v9.81a3.44,3.44,0,0,0,.88,2.52,3.14,3.14,0,0,0,2.33.9h10.59A1.27,1.27,0,0,0,161.68,108.55Z"/><path class="g" d="M164.52,102.09h4.18v6.18a1.36,1.36,0,0,0,.47,1,1.64,1.64,0,0,0,1.14.42,1.59,1.59,0,0,0,1.1-.42,1.36,1.36,0,0,0,.47-1V91.82a1.52,1.52,0,0,0-.47-1.13,1.53,1.53,0,0,0-1.1-.45,1.58,1.58,0,0,0-1.14.45,1.52,1.52,0,0,0-.47,1.13v6.93h-4.18a1.29,1.29,0,0,0-1,.48,1.67,1.67,0,0,0-.4,1.14,1.87,1.87,0,0,0,.4,1.22A1.28,1.28,0,0,0,164.52,102.09Z"/><path class="g" d="M141,119.63c-.23.21-.47.42-.72.62a12,12,0,0,1-1.56,1.08,9.94,9.94,0,0,1-3.54,1.26,7.31,7.31,0,0,1-6.64-2.4,9.19,9.19,0,0,1-1.54-6.57,2.8,2.8,0,0,1,.45-1.48,1.52,1.52,0,0,1,2.46.1,2.43,2.43,0,0,1,.36,1.15c.13,1.24-.13,2.55.34,3.7a3.91,3.91,0,0,0,3.76,2.19,7.34,7.34,0,0,0,4.21-1.77c.81-.64,1.49-1.23,2.36-.88C142.13,117.13,142.05,118.63,141,119.63Z"/><path class="g" d="M172.64,119.63c-.23.21-.47.42-.72.62a12,12,0,0,1-1.56,1.08,9.94,9.94,0,0,1-3.54,1.26,7.3,7.3,0,0,1-6.64-2.4,9.14,9.14,0,0,1-1.54-6.57,2.71,2.71,0,0,1,.44-1.48,1.52,1.52,0,0,1,2.46.1,2.44,2.44,0,0,1,.37,1.15c.13,1.24-.13,2.55.33,3.7a3.94,3.94,0,0,0,3.77,2.19,7.37,7.37,0,0,0,4.21-1.77c.8-.64,1.49-1.23,2.36-.88C173.8,117.13,173.72,118.63,172.64,119.63Z"/></g></svg>