<svg xmlns="http://www.w3.org/2000/svg" xmlns:xlink="http://www.w3.org/1999/xlink" viewBox="0 0 100 90"><defs><style>.a{fill:#edeff0;}.b{fill:url(#a);}.c{fill:#999;}.d{fill:#9a9a9a;}.e{fill:#979797;}.f{fill:#424242;stroke:#3a424b;stroke-miterlimit:10;stroke-width:0.04px;}</style><linearGradient id="a" x1="17.3" y1="207.54" x2="82.7" y2="207.54" gradientTransform="matrix(1, 0, 0, -1, 0, 250)" gradientUnits="userSpaceOnUse"><stop offset="0" stop-color="#b3b3b3"/><stop offset="1" stop-color="#a0a0a0"/></linearGradient></defs><title>club-photo_long</title><rect class="a" width="100" height="90"/><path class="b" d="M82.25,39.1C80.92,32.51,76.57,27,70.91,23.35A33,33,0,0,0,51.66,18.5,38.87,38.87,0,0,0,24.72,30.93a28.6,28.6,0,0,0-6.94,12.73c-1.14,5.14-.28,14.06,3,16.62C18.8,46.76,23.48,37.66,30.87,31a33.42,33.42,0,0,1,27.77-7.77,25.59,25.59,0,0,1,14,7,19.77,19.77,0,0,1,5.85,14c-.08,5.82-2.91,11.33-6.76,15.7-.31.36-.67.67-1,1v5.46A28.54,28.54,0,0,0,80.27,54.8,26.3,26.3,0,0,0,82.25,39.1Z"/><path class="c" d="M34.46,71.53c-1.16,0-1.57-.51-1.57-1.87V47.8h7V66.5c0,1.65-3,5-4.15,5Z"/><path class="d" d="M62.4,71.53c-1,0-1.5-.71-1.5-1.89v-8.4c0-2.52.4-8.29-5.32-8.29H50.29V71.52H43.22V47.78s9.29-.12,13.94.08,8.8,1.54,10.23,8a22.46,22.46,0,0,1,.55,5v5.77c0,1.65-3.13,4.88-4.21,4.88Z"/><path class="e" d="M29.32,39.74c-.11,0-2,4.54,2.32,5.34,0,0-3.37,1.66-4.35-.9C26.45,42,29.32,39.74,29.32,39.74Z"/><path class="e" d="M35.88,30.25l3,.21-8.21,9.29Z"/><polygon class="e" points="37.92 34.25 40.43 35.19 30.75 41.12 37.92 34.25"/><polygon class="e" points="43.32 34.61 43.54 37.34 31.26 42.4 43.32 34.61"/><path class="e" d="M42.76,39.24,42.25,42S31.9,43.4,32,43.4C32.73,43.4,41.8,39.6,42.76,39.24Z"/><path class="f" d="M51.83,36.1a2.68,2.68,0,0,1-2.17,2.52H47.39a1.22,1.22,0,0,1-.93-.36,1.31,1.31,0,0,1-.35-1V33.73a2.2,2.2,0,0,1,.37-1.31,1.51,1.51,0,0,1,1.28-.49h2.71a1.28,1.28,0,0,1,1,.4,1.5,1.5,0,0,1,.35,1ZM50.63,36V33.87c0-.58-.37-.59-.54-.59H47.94c-.4,0-.64,0-.64.68V36.7c0,.52.14.61.45.61h1.71A1.4,1.4,0,0,0,50.64,36Zm5.43,2.35a.52.52,0,0,1-.18.4.66.66,0,0,1-.44.17.71.71,0,0,1-.46-.17.55.55,0,0,1-.18-.4V31.73a.57.57,0,0,1,.18-.45.62.62,0,0,1,.46-.18.6.6,0,0,1,.44.18.57.57,0,0,1,.18.45Z"/><path class="f" d="M64.67,38.42a.69.69,0,0,0,0-.91.51.51,0,0,0-.4-.2H60.4c-.46,0-.46-.4-.46-.61v-.94h3.84a.45.45,0,0,0,.4-.19.8.8,0,0,0,0-1,.45.45,0,0,0-.4-.19H59.94v-.87c0-.21-.07-.72.68-.72h3.2a.45.45,0,0,0,.38-.21.71.71,0,0,0,0-.87.48.48,0,0,0-.38-.21H60.4a1.55,1.55,0,0,0-1.2.52,1.85,1.85,0,0,0-.47,1.26v3.93a1.35,1.35,0,0,0,.35,1,1.22,1.22,0,0,0,.93.36h4.24A.5.5,0,0,0,64.67,38.42Z"/><path class="f" d="M65.81,35.84h1.67v2.47a.53.53,0,0,0,.19.4.68.68,0,0,0,.45.17.64.64,0,0,0,.44-.17.53.53,0,0,0,.19-.4V31.73a.55.55,0,0,0-.19-.45.64.64,0,0,0-1.08.45V34.5H65.81a.51.51,0,0,0-.4.19.65.65,0,0,0-.16.46.72.72,0,0,0,.16.49A.51.51,0,0,0,65.81,35.84Z"/><path class="f" d="M56.4,42.85a3.47,3.47,0,0,1-.29.25,3.81,3.81,0,0,1-.62.43,4,4,0,0,1-1.42.51,2.94,2.94,0,0,1-2.65-1,3.67,3.67,0,0,1-.62-2.63,1.11,1.11,0,0,1,.18-.59.6.6,0,0,1,.85-.1.44.44,0,0,1,.13.14.93.93,0,0,1,.15.46,5.59,5.59,0,0,0,.13,1.48,1.57,1.57,0,0,0,1.51.87A2.92,2.92,0,0,0,55.43,42c.33-.25.6-.49,1-.35S56.82,42.45,56.4,42.85Z"/><path class="f" d="M69.06,42.85l-.29.25a4.38,4.38,0,0,1-.63.43,3.92,3.92,0,0,1-1.41.51,3,3,0,0,1-2.66-1,3.67,3.67,0,0,1-.61-2.63,1.1,1.1,0,0,1,.17-.59.61.61,0,0,1,.86-.1.58.58,0,0,1,.13.14,1,1,0,0,1,.14.46,5.59,5.59,0,0,0,.14,1.48,1.56,1.56,0,0,0,1.5.87A2.92,2.92,0,0,0,68.09,42c.32-.25.59-.49.94-.35S69.49,42.45,69.06,42.85Z"/></svg>