<svg xmlns="http://www.w3.org/2000/svg" width="37.87" height="37" viewBox="0 0 37.87 37"><defs><style>.a{fill:#ac68cc;}.b{fill:#5f71d4;}</style></defs><title>club_icon</title><path class="a" d="M26.6,24.14a38.83,38.83,0,0,1-7.69,6.48,34.75,34.75,0,0,1-7.53-6.47Z"/><polygon class="a" points="10.89 13.75 10.89 10.65 18.93 6.48 26.97 10.66 26.97 13.75 10.89 13.75"/><path class="b" d="M18.93,37C17,37,5.68,29.06,5.31,24.48l0-.19H.91a.91.91,0,0,1-.78-.44A.92.92,0,0,1,.1,23l2.22-4.18L.14,15a.88.88,0,0,1,0-.91.9.9,0,0,1,.78-.45l4.38,0V7.51a.9.9,0,0,1,.49-.8L18.51.11a.9.9,0,0,1,.86,0L32.1,6.72a.91.91,0,0,1,.48.81v6.11l4.37,0a.9.9,0,0,1,.79.45.89.89,0,0,1,0,.89l-2.19,3.74L37.76,23a.91.91,0,0,1,0,.89.94.94,0,0,1-.79.44H32.57l0,.19c-.17,2.26-3.23,5.83-6,8C24.27,34.32,20.38,37,18.93,37ZM7.24,24.21l0,.25c.47,2.91,9.26,9.86,11.47,10.52v.08L19,35c1.67-.26,11.09-7.62,11.57-10.55l.05-.25Zm28.17-1.78-1.77-3.15a.89.89,0,0,1,0-.88l1.72-2.92H2.53L4.2,18.19a.89.89,0,0,1,0,.89L2.42,22.42h33Zm-4.79-8.74V8.17L19,2.14l-11.79,6v5.54Z"/></svg>