<?xml version="1.0" encoding="utf-8"?>
<!-- Generator: Adobe Illustrator 22.0.1, SVG Export Plug-In . SVG Version: 6.00 Build 0)  -->
<svg version="1.1" id="kakao_1" xmlns="http://www.w3.org/2000/svg" xmlns:xlink="http://www.w3.org/1999/xlink" x="0px"
	 y="0px" viewBox="0 0 2500 2500" style="enable-background:new 0 0 2500 2500;" xml:space="preserve">
<style type="text/css">
	.st0{fill:#FFD800;}
</style>
<path class="st0" d="M2500,2304.7c0,107.9-87.4,195.3-195.3,195.3H195.3C87.4,2500,0,2412.6,0,2304.7V195.3C0,87.4,87.4,0,195.3,0
	h2109.4C2412.6,0,2500,87.4,2500,195.3V2304.7z"/>
<path d="M1250,398.4c-532.9,0-964.8,340.6-964.8,760.7c0,271.6,180.6,510,452.3,644.6c-14.8,51-95,327.9-98.2,349.7
	c0,0-1.9,16.3,8.7,22.6c10.6,6.2,23,1.4,23,1.4c30.4-4.2,352-230.2,407.7-269.4c55.6,7.9,112.9,12,171.4,12
	c532.9,0,964.8-340.6,964.8-760.7C2214.8,739,1782.9,398.4,1250,398.4L1250,398.4z"/>
<path class="st0" d="M716.6,1424.7c-30.7,0-55.7-23.8-55.7-53.2v-330.7H574c-30.1,0-54.6-24.5-54.6-54.5s24.5-54.5,54.6-54.5h285
	c30.1,0,54.6,24.5,54.6,54.5s-24.5,54.5-54.6,54.5h-86.9v330.7C772.2,1400.9,747.3,1424.7,716.6,1424.7z M1204.7,1424
	c-23.2,0-41-9.4-46.3-24.6l-27.6-72.2l-169.7,0l-27.6,72.2c-5.3,15.1-23.1,24.5-46.3,24.5c-12.2,0-24.3-2.6-35.4-7.7
	c-15.3-7.1-30.1-26.5-13.2-79l133.1-350.5c9.4-26.7,37.9-54.1,74.1-54.9c36.4,0.8,64.8,28.3,74.2,55l133.1,350.3
	c16.9,52.6,2.2,72.1-13.2,79.2C1228.9,1421.4,1216.9,1424,1204.7,1424C1204.6,1424,1204.7,1424,1204.7,1424L1204.7,1424z
	 M1101.5,1228.7l-55.6-157.9l-55.6,157.9L1101.5,1228.7L1101.5,1228.7z M1342.8,1416.6c-29.4,0-53.3-22.9-53.3-51V987.5
	c0-30.7,25.5-55.7,56.8-55.7s56.8,25,56.8,55.7v327h118.3c29.4,0,53.3,22.9,53.3,51c0,28.1-23.9,51-53.3,51H1342.8z M1652,1424
	c-30.7,0-55.7-25-55.7-55.7V987.5c0-30.7,25-55.7,55.7-55.7s55.7,25,55.7,55.7v119.6L1863,951.9c8-8,19-12.4,30.9-12.4
	c13.9,0,27.9,6,38.3,16.4c9.8,9.7,15.6,22.3,16.4,35.3c0.8,13.1-3.6,25.2-12.3,33.9l-126.8,126.8l137,181.5
	c8.9,11.8,12.8,26.6,10.7,41.2c-2,14.6-9.8,27.9-21.6,36.7c-9.6,7.3-21.4,11.3-33.5,11.2c-17.5,0.1-34-8.1-44.5-22.1l-130.5-173
	l-19.3,19.3v121.4C1707.7,1399.1,1682.8,1424,1652,1424L1652,1424z"/>
</svg>
