<svg xmlns="http://www.w3.org/2000/svg" width="107" height="23.89" viewBox="0 0 107 23.89"><defs><style>.a{fill:#fff;}</style></defs><title>logo_w</title><path class="a" d="M47,21.27a4,4,0,0,1-2.15,2.53h-.12a7.17,7.17,0,0,1-1.33-.14A3.32,3.32,0,0,1,42,23.06a3,3,0,0,1-1-1.22,4.49,4.49,0,0,1-.41-2.06V12.17H38.8V9.1h1.78V4.55h3.6V9.1H46.1v3.07H44.18v5.88a4.22,4.22,0,0,0,.42,2.21c.26.32.5.48,1.27.48h.76A.37.37,0,0,1,47,21,.92.92,0,0,1,47,21.27Z"/><path class="a" d="M21,23.84c-.59,0-.8-.26-.8-.95V9.7h3.6V21.27c0,.84-1.55,2.57-2.13,2.57ZM22,8.19a2,2,0,0,1-1.53-.67,2.27,2.27,0,0,1,0-3.12,2,2,0,0,1,3,0A2.23,2.23,0,0,1,24.1,6a2.18,2.18,0,0,1-.64,1.57A2,2,0,0,1,22,8.19Z"/><path class="a" d="M54.45,23.86a7.55,7.55,0,0,1-3.14-.6,6,6,0,0,1-2.17-1.64,6.68,6.68,0,0,1-1.24-2.38,10,10,0,0,1-.39-2.82,10.06,10.06,0,0,1,.39-2.82,6.33,6.33,0,0,1,1.25-2.35,6.09,6.09,0,0,1,2.16-1.61,7.72,7.72,0,0,1,3.14-.59,7.42,7.42,0,0,1,3.14.61,6.13,6.13,0,0,1,2.18,1.62,6.75,6.75,0,0,1,1.29,2.37,9.42,9.42,0,0,1,.4,2.77,10.11,10.11,0,0,1-.4,2.9,6.66,6.66,0,0,1-1.26,2.37,6,6,0,0,1-2.18,1.59A8,8,0,0,1,54.45,23.86Zm0-12a3.27,3.27,0,0,0-1.58.36,2.85,2.85,0,0,0-1,1,4.27,4.27,0,0,0-.58,1.47,9.91,9.91,0,0,0-.17,1.84,6.6,6.6,0,0,0,.78,3.36,2.64,2.64,0,0,0,2.5,1.28,2.82,2.82,0,0,0,2.69-1.28,6.6,6.6,0,0,0,.78-3.36,8.94,8.94,0,0,0-.18-1.83,4.32,4.32,0,0,0-.59-1.47,2.67,2.67,0,0,0-1-1A3.28,3.28,0,0,0,54.45,11.81Z"/><path class="a" d="M15.14,23.8c-.58,0-.79-.27-.79-.95V10.63L11,15.92A4.49,4.49,0,0,1,10.11,17a1.38,1.38,0,0,1-.91.33A1.8,1.8,0,0,1,8,16.91a4.58,4.58,0,0,1-.84-1.05l-3.3-5.2V23.78H0V6a2.37,2.37,0,0,1,.59-1.7A1.9,1.9,0,0,1,2,3.71a2.16,2.16,0,0,1,1.3.4A5,5,0,0,1,4.5,5.54l4.61,7.32,4.64-7.38a5.28,5.28,0,0,1,1.06-1.3,2.1,2.1,0,0,1,1.36-.47,1.88,1.88,0,0,1,1.45.58A2.41,2.41,0,0,1,18.17,6V21.29a3.84,3.84,0,0,1-2.08,2.52h-.95Z"/><polyline class="a" points="44.18 9.1 46.1 9.1 46.1 12.17 44.18 12.17"/><path class="a" d="M35.3,23.88c-.49,0-.77-.41-.77-1V16.29A8.15,8.15,0,0,0,33.92,13a2.07,2.07,0,0,0-2.1-1.13,3.62,3.62,0,0,0-2.23.55,1.07,1.07,0,0,0-.47.92V23.81h-3.6V12.7A3,3,0,0,1,26.81,10a12.13,12.13,0,0,1,5.23-1,6.36,6.36,0,0,1,3,.61,5.22,5.22,0,0,1,1.9,1.63,6.55,6.55,0,0,1,1,2.31,12.22,12.22,0,0,1,.28,2.65v5.1A4,4,0,0,1,36,23.88Z"/><path class="a" d="M72.59,23.88c-.49,0-.77-.41-.77-1V16.29A8.15,8.15,0,0,0,71.21,13a2.07,2.07,0,0,0-2.1-1.13,3.62,3.62,0,0,0-2.23.55,1.07,1.07,0,0,0-.47.92V23.81h-3.6V12.65a2.7,2.7,0,0,1,1.29-2.6,12.35,12.35,0,0,1,5.16-1,6.7,6.7,0,0,1,3,.61,5.34,5.34,0,0,1,1.91,1.63,6.72,6.72,0,0,1,1,2.31,12.22,12.22,0,0,1,.28,2.65v5.1a4,4,0,0,1-2.15,2.53Z"/><path class="a" d="M84.8,23.85c-.53,0-.72-.24-.72-.85V11.21H87.3V21.55a3.53,3.53,0,0,1-1.9,2.3Zm.89-14a1.81,1.81,0,0,1-1.36-.6,2,2,0,0,1-.55-1.41,2,2,0,0,1,.55-1.38,1.78,1.78,0,0,1,1.36-.62A1.83,1.83,0,0,1,87,6.46a2,2,0,0,1,.57,1.39A2,2,0,0,1,87,9.26,1.82,1.82,0,0,1,85.69,9.86Z"/><path class="a" d="M106.79,9.42a11.34,11.34,0,0,0-5.17-7.19A15,15,0,0,0,92.84,0a17.74,17.74,0,0,0-12.3,5.67,12.92,12.92,0,0,0-3.17,5.81,8.61,8.61,0,0,0,1,6.44A15,15,0,0,1,96,2.18a11.65,11.65,0,0,1,6.37,3.2,9,9,0,0,1,2.67,6.39A11.32,11.32,0,0,1,102,18.94l-.3.3v2.55a13,13,0,0,0,4.21-5.21A12,12,0,0,0,106.79,9.42Z"/><path class="a" d="M97.54,23.89c-.44,0-.68-.37-.68-.91V17.1a7.16,7.16,0,0,0-.55-3,1.86,1.86,0,0,0-1.88-1,3.29,3.29,0,0,0-2,.49,1,1,0,0,0-.41.82v9.4H88.8V13.89A2.63,2.63,0,0,1,90,11.49a10.8,10.8,0,0,1,4.68-.86,5.64,5.64,0,0,1,2.63.54A4.79,4.79,0,0,1,99,12.63a6,6,0,0,1,.86,2.07,10.8,10.8,0,0,1,.25,2.36v4.56a3.55,3.55,0,0,1-1.92,2.27Z"/></svg>