<svg xmlns="http://www.w3.org/2000/svg" xmlns:xlink="http://www.w3.org/1999/xlink" viewBox="0 0 480 320"><defs><style>.a{isolation:isolate;}.b{fill:#edeff0;mix-blend-mode:color;}.c{fill:url(#a);}.d{fill:#999;}.e{fill:#9a9a9a;}.f{fill:#979797;}.g{fill:#424242;stroke:#3a424b;stroke-miterlimit:10;stroke-width:0.04px;}</style><linearGradient id="a" x1="157.4" y1="153.57" x2="322.6" y2="153.57" gradientUnits="userSpaceOnUse"><stop offset="0" stop-color="#b3b3b3"/><stop offset="1" stop-color="#a0a0a0"/></linearGradient></defs><title>logo32</title><g class="a"><rect class="b" width="480" height="320"/><path class="c" d="M321.46,145.09c-3.35-16.64-14.34-30.62-28.63-39.78s-31.66-13-48.63-12.24c-25.71,1.17-50.78,12.29-68,31.38-8.28,9.17-14.83,20.1-17.52,32.16-2.91,13-.74,35.53,7.5,42-4.92-34.17,6.89-57.15,25.54-73.92s45.44-24,70.17-19.64c13.09,2.33,26,8.08,35.27,17.72s15,22,14.78,35.36c-.2,14.69-7.36,28.62-17.07,39.66-.79.9-1.7,1.69-2.52,2.57v13.8a72.3,72.3,0,0,0,24.16-29.41C321.94,172.37,324.14,158.36,321.46,145.09Z"/><path class="d" d="M200.76,227c-2.94,0-4-1.29-4-4.71V167.07H214.6V214.3c0,4.18-7.65,12.72-10.5,12.72Z"/><path class="e" d="M271.27,227c-2.43,0-3.78-1.81-3.78-4.78V201.05c0-6.37,1-20.94-13.45-20.94H240.73s0,3.86,0,5.67l0,14.49V227H222.87l0-60s23.46-.29,35.23.21,22.26,3.88,25.83,20.3a57.21,57.21,0,0,1,1.38,12.56v14.59c0,4.16-7.9,12.31-10.63,12.31Z"/><path class="f" d="M187.76,146.72c-.27,0-5.08,11.45,5.87,13.48,0,0-8.52,4.18-11-2.27C180.5,152.41,187.76,146.72,187.76,146.72Z"/><path class="f" d="M204.34,122.73c.27,0,7.57.54,7.57.54l-20.73,23.48Z"/><polygon class="f" points="209.47 132.84 215.82 135.21 191.38 150.19 209.47 132.84"/><polygon class="f" points="223.13 133.75 223.68 140.64 192.66 153.43 223.13 133.75"/><path class="f" d="M221.72,145.44l-1.3,6.86s-26.13,3.63-25.93,3.63C196.38,155.93,219.29,146.37,221.72,145.44Z"/><path class="g" d="M244.62,137.53c0,2.92-2.88,6.37-5.48,6.37h-5.72a3.16,3.16,0,0,1-2.36-.91,3.48,3.48,0,0,1-.89-2.55v-8.91a5.36,5.36,0,0,1,.94-3.3,3.82,3.82,0,0,1,3.25-1.25h6.83a3.26,3.26,0,0,1,2.55,1,3.79,3.79,0,0,1,.88,2.62Zm-3-.37V131.9c0-1.48-.94-1.51-1.37-1.51h-5.42c-1.06,0-1.63.07-1.63,1.73V139c0,1.32.36,1.55,1.16,1.55h4.31C240.29,140.58,241.62,138.58,241.62,137.16Zm13.73,5.94a1.33,1.33,0,0,1-.47,1,1.56,1.56,0,0,1-1.11.43,1.61,1.61,0,0,1-1.15-.43,1.33,1.33,0,0,1-.47-1V126.48a1.49,1.49,0,0,1,.47-1.14,1.55,1.55,0,0,1,1.15-.46,1.51,1.51,0,0,1,1.11.46,1.49,1.49,0,0,1,.47,1.14Z"/><path class="g" d="M277.06,143.38a1.77,1.77,0,0,0,0-2.3,1.27,1.27,0,0,0-1-.5h-9.76c-1.17,0-1.15-1-1.15-1.55v-2.36h9.69a1.18,1.18,0,0,0,1-.48,2.06,2.06,0,0,0,0-2.41,1.18,1.18,0,0,0-1-.48h-9.69v-2.18c0-.55-.2-1.82,1.71-1.82h8.06a1.22,1.22,0,0,0,1-.55,1.8,1.8,0,0,0,0-2.18,1.2,1.2,0,0,0-1-.55h-8.62a3.88,3.88,0,0,0-3,1.32,4.56,4.56,0,0,0-1.2,3.18v9.92A3.48,3.48,0,0,0,263,143a3.14,3.14,0,0,0,2.35.91H276A1.29,1.29,0,0,0,277.06,143.38Z"/><path class="g" d="M279.93,136.85h4.23v6.25a1.33,1.33,0,0,0,.47,1,1.61,1.61,0,0,0,1.15.43,1.56,1.56,0,0,0,1.11-.43,1.33,1.33,0,0,0,.47-1V126.48a1.49,1.49,0,0,0-.47-1.14,1.51,1.51,0,0,0-1.11-.46,1.55,1.55,0,0,0-1.15.46,1.49,1.49,0,0,0-.47,1.14v7h-4.23a1.31,1.31,0,0,0-1.05.48,1.73,1.73,0,0,0-.41,1.16,1.92,1.92,0,0,0,.41,1.23A1.3,1.3,0,0,0,279.93,136.85Z"/><path class="g" d="M256.14,154.57c-.24.22-.48.43-.73.63a13,13,0,0,1-1.58,1.09,9.92,9.92,0,0,1-3.57,1.27,7.36,7.36,0,0,1-6.71-2.42A9.23,9.23,0,0,1,242,148.5a2.87,2.87,0,0,1,.45-1.5,1.54,1.54,0,0,1,2.49.11,2.56,2.56,0,0,1,.37,1.16c.13,1.25-.14,2.57.33,3.74a4,4,0,0,0,3.81,2.21,7.45,7.45,0,0,0,4.25-1.79c.81-.64,1.51-1.24,2.38-.88C257.31,152.05,257.22,153.56,256.14,154.57Z"/><path class="g" d="M288.14,154.57c-.24.22-.48.43-.73.63a13,13,0,0,1-1.58,1.09,9.92,9.92,0,0,1-3.57,1.27,7.36,7.36,0,0,1-6.71-2.42A9.23,9.23,0,0,1,274,148.5a2.7,2.7,0,0,1,.45-1.5,1.53,1.53,0,0,1,2.48.11,2.34,2.34,0,0,1,.37,1.16c.14,1.25-.13,2.57.34,3.74a4,4,0,0,0,3.81,2.21,7.45,7.45,0,0,0,4.25-1.79c.81-.64,1.5-1.24,2.38-.88C289.31,152.05,289.22,153.56,288.14,154.57Z"/></g></svg>