<svg xmlns="http://www.w3.org/2000/svg" xmlns:xlink="http://www.w3.org/1999/xlink" viewBox="0 0 480 320"><defs><style>.a{isolation:isolate;}.b{fill:#edeff0;mix-blend-mode:color;}.c{fill:url(#a);}.d{fill:#999;}.e{fill:#9a9a9a;}.f{fill:#979797;}.g{fill:#424242;stroke:#3a424b;stroke-miterlimit:10;stroke-width:0.05px;}</style><linearGradient id="a" x1="127.25" y1="148.22" x2="352.75" y2="148.22" gradientUnits="userSpaceOnUse"><stop offset="0" stop-color="#b3b3b3"/><stop offset="1" stop-color="#a0a0a0"/></linearGradient></defs><title>logo32</title><g class="a"><rect class="b" width="480" height="320"/><path class="c" d="M351.19,136.65c-4.58-22.72-19.57-41.8-39.08-54.3S268.89,64.6,245.74,65.64c-35.1,1.59-69.33,16.77-92.89,42.84-11.31,12.5-20.25,27.43-23.93,43.89-4,17.74-1,48.51,10.25,57.33-6.71-46.64,9.4-78,34.86-100.9S236.05,76,269.81,82c17.86,3.19,35.42,11,48.15,24.19s20.42,30.07,20.17,48.26c-.28,20.06-10,39.08-23.3,54.14-1.08,1.23-2.32,2.32-3.44,3.51v18.84a98.66,98.66,0,0,0,33-40.15C351.85,173.88,354.85,154.76,351.19,136.65Z"/><path class="d" d="M186.43,248.49c-4,0-5.41-1.78-5.41-6.44V166.66h24.31v64.47c0,5.69-10.45,17.36-14.34,17.36Z"/><path class="e" d="M282.69,248.49c-3.32,0-5.16-2.48-5.16-6.53V213c0-8.7,1.34-28.59-18.36-28.59H241s-.05,5.27-.05,7.74L241,212v36.52H216.62l0-81.87s32-.4,48.08.3,30.39,5.29,35.26,27.7a77.55,77.55,0,0,1,1.89,17.14v19.92c0,5.67-10.78,16.81-14.51,16.81Z"/><path class="f" d="M168.69,138.87c-.37,0-6.93,15.64,8,18.4,0,0-11.63,5.71-15-3.1C158.79,146.64,168.69,138.87,168.69,138.87Z"/><path class="f" d="M191.33,106.13c.37,0,10.32.74,10.32.74l-28.29,32Z"/><polygon class="f" points="198.33 119.93 207 123.16 173.64 143.61 198.33 119.93"/><polygon class="f" points="216.98 121.17 217.72 130.58 175.39 148.03 216.98 121.17"/><path class="f" d="M215,137.13l-1.77,9.36s-35.67,5-35.39,5C180.45,151.45,211.73,138.39,215,137.13Z"/><path class="g" d="M246.3,126.33c0,4-3.92,8.69-7.47,8.69H231a4.31,4.31,0,0,1-3.21-1.24,4.73,4.73,0,0,1-1.22-3.48V118.14a7.28,7.28,0,0,1,1.28-4.5q1.29-1.71,4.44-1.71h9.33a4.42,4.42,0,0,1,3.47,1.34,5.14,5.14,0,0,1,1.2,3.57Zm-4.09-.51v-7.18c0-2-1.28-2-1.86-2h-7.41c-1.44,0-2.22.09-2.22,2.36v9.43c0,1.8.49,2.11,1.58,2.11h5.89C240.4,130.49,242.21,127.76,242.21,125.82ZM261,133.93a1.85,1.85,0,0,1-.65,1.4,2.17,2.17,0,0,1-1.51.59,2.26,2.26,0,0,1-1.58-.59,1.84,1.84,0,0,1-.64-1.4V111.24a2.05,2.05,0,0,1,.64-1.55,2.16,2.16,0,0,1,1.58-.62,2.17,2.17,0,0,1,2.16,2.17Z"/><path class="g" d="M290.59,134.31a2.42,2.42,0,0,0,0-3.14,1.77,1.77,0,0,0-1.4-.68H275.88c-1.6,0-1.58-1.33-1.58-2.11v-3.23h13.23a1.64,1.64,0,0,0,1.37-.65,2.81,2.81,0,0,0,0-3.29,1.62,1.62,0,0,0-1.37-.66H274.3v-3c0-.74-.27-2.48,2.34-2.48h11a1.61,1.61,0,0,0,1.32-.75,2.46,2.46,0,0,0,0-3,1.63,1.63,0,0,0-1.32-.74H275.88a5.29,5.29,0,0,0-4.09,1.8,6.24,6.24,0,0,0-1.63,4.35V130.3a4.73,4.73,0,0,0,1.22,3.48,4.31,4.31,0,0,0,3.21,1.24h14.6A1.75,1.75,0,0,0,290.59,134.31Z"/><path class="g" d="M294.5,125.4h5.77v8.53a1.85,1.85,0,0,0,.65,1.4,2.23,2.23,0,0,0,1.57.59,2.18,2.18,0,0,0,1.52-.59,1.84,1.84,0,0,0,.64-1.4V111.24a2.05,2.05,0,0,0-.64-1.55,2.08,2.08,0,0,0-1.52-.62,2.13,2.13,0,0,0-1.57.62,2.06,2.06,0,0,0-.65,1.55v9.56H294.5a1.81,1.81,0,0,0-1.43.65,2.39,2.39,0,0,0-.55,1.59,2.55,2.55,0,0,0,.55,1.67A1.76,1.76,0,0,0,294.5,125.4Z"/><path class="g" d="M262,149.59c-.32.3-.65.58-1,.86a16.91,16.91,0,0,1-2.16,1.49,13.45,13.45,0,0,1-4.88,1.73,10,10,0,0,1-9.15-3.3c-2-2.48-2.41-5.9-2.13-9.07a3.79,3.79,0,0,1,.61-2,2.1,2.1,0,0,1,3.39.14,3.39,3.39,0,0,1,.51,1.59c.18,1.71-.19,3.51.46,5.1a5.39,5.39,0,0,0,5.2,3,10.2,10.2,0,0,0,5.8-2.44c1.11-.88,2.05-1.69,3.25-1.21C263.63,146.15,263.51,148.21,262,149.59Z"/><path class="g" d="M305.7,149.59c-.32.3-.65.58-1,.86a17.53,17.53,0,0,1-2.15,1.49,13.58,13.58,0,0,1-4.88,1.73,10.05,10.05,0,0,1-9.16-3.3c-2-2.48-2.41-5.9-2.13-9.07a3.88,3.88,0,0,1,.62-2,2.1,2.1,0,0,1,3.39.14,3.39,3.39,0,0,1,.51,1.59c.18,1.71-.19,3.51.46,5.1a5.38,5.38,0,0,0,5.19,3,10.14,10.14,0,0,0,5.8-2.44c1.12-.88,2.06-1.69,3.26-1.21C307.31,146.15,307.19,148.21,305.7,149.59Z"/></g></svg>