<svg xmlns="http://www.w3.org/2000/svg" xmlns:xlink="http://www.w3.org/1999/xlink" viewBox="0 0 85.08 18.99">
  <defs>
    <style>
      .a {
        fill: #5f71d4;
      }

      .b {
        fill: url(#a);
      }

      .c {
        fill: #ac68cc;
      }
    </style>
    <linearGradient id="a" data-name="Gradient_color 12" x1="61.33" y1="8.66" x2="85.08" y2="8.66" gradientUnits="userSpaceOnUse">
      <stop offset="0" stop-color="#7d96ea"/>
      <stop offset="0.61" stop-color="#9d77d6"/>
      <stop offset="1" stop-color="#ac68cc"/>
    </linearGradient>
  </defs>
  <title>logo1</title>
  <g>
    <g>
      <path class="a" d="M37.38,16.91a3.17,3.17,0,0,1-1.71,2h-.09a6,6,0,0,1-1.07-.11,2.7,2.7,0,0,1-1.08-.48,2.51,2.51,0,0,1-.84-1,3.55,3.55,0,0,1-.32-1.64V9.67H30.85V7.23h1.42V3.62h2.86V7.23h1.52V9.67H35.13v4.68a3.4,3.4,0,0,0,.33,1.76c.21.25.4.38,1,.38h.6a.31.31,0,0,1,.28.21A.71.71,0,0,1,37.38,16.91Z"/>
      <path class="a" d="M16.66,19c-.47,0-.63-.21-.63-.76V7.71h2.86v9.2A3.15,3.15,0,0,1,17.2,19Zm.8-12.45A1.61,1.61,0,0,1,16.25,6a1.79,1.79,0,0,1,0-2.48A1.57,1.57,0,0,1,17.46,3a1.61,1.61,0,0,1,1.2.54,1.78,1.78,0,0,1,.5,1.24A1.72,1.72,0,0,1,18.65,6,1.62,1.62,0,0,1,17.46,6.51Z"/>
      <path class="a" d="M43.29,19a6.08,6.08,0,0,1-2.49-.47,4.76,4.76,0,0,1-1.73-1.31,5.24,5.24,0,0,1-1-1.89,8.25,8.25,0,0,1,0-4.48,5.21,5.21,0,0,1,1-1.88A4.83,4.83,0,0,1,40.8,7.67a5.91,5.91,0,0,1,2.49-.48,6,6,0,0,1,2.5.49A5,5,0,0,1,47.53,9a5.45,5.45,0,0,1,1,1.88,7.67,7.67,0,0,1,.32,2.21,8.19,8.19,0,0,1-.32,2.3,5.38,5.38,0,0,1-1,1.88,4.7,4.7,0,0,1-1.74,1.27A6.41,6.41,0,0,1,43.29,19Zm0-9.58A2.51,2.51,0,0,0,42,9.68a2.12,2.12,0,0,0-.8.77,3.12,3.12,0,0,0-.46,1.17,6.89,6.89,0,0,0-.14,1.46,5.3,5.3,0,0,0,.62,2.67,2.09,2.09,0,0,0,2,1,2.24,2.24,0,0,0,2.14-1A5.3,5.3,0,0,0,46,13.08a6.88,6.88,0,0,0-.15-1.46,3.45,3.45,0,0,0-.47-1.16,2.17,2.17,0,0,0-.81-.78A2.67,2.67,0,0,0,43.29,9.39Z"/>
      <path class="a" d="M12,18.93c-.47,0-.63-.22-.63-.76V8.45L8.72,12.66A3.62,3.62,0,0,1,8,13.5a1.12,1.12,0,0,1-.73.26,1.36,1.36,0,0,1-.95-.32,3.35,3.35,0,0,1-.68-.83L3.06,8.48V18.91H0V4.79A1.91,1.91,0,0,1,.47,3.44,1.49,1.49,0,0,1,1.59,3a1.74,1.74,0,0,1,1,.32,4,4,0,0,1,1,1.13l3.66,5.83,3.69-5.87a4.09,4.09,0,0,1,.85-1A1.63,1.63,0,0,1,12.86,3,1.51,1.51,0,0,1,14,3.41a1.94,1.94,0,0,1,.44,1.38V16.93a3.07,3.07,0,0,1-1.66,2H12Z"/>
      <polyline class="a" points="35.13 7.23 36.65 7.23 36.66 9.68 35.13 9.68"/>
    </g>
    <g>
      <path class="a" d="M28.07,19c-.4,0-.61-.33-.61-.8V13A6.38,6.38,0,0,0,27,10.31,1.65,1.65,0,0,0,25.3,9.4a2.94,2.94,0,0,0-1.78.44.87.87,0,0,0-.37.73v8.36H20.29V10.1a2.36,2.36,0,0,1,1-2.14,9.79,9.79,0,0,1,4.17-.76,5,5,0,0,1,2.34.48A4.2,4.2,0,0,1,29.34,9a5.25,5.25,0,0,1,.76,1.83,9.81,9.81,0,0,1,.23,2.11V17a3.18,3.18,0,0,1-1.71,2Z"/>
      <path class="a" d="M57.71,19c-.39,0-.6-.33-.6-.8V13a6.38,6.38,0,0,0-.49-2.64A1.65,1.65,0,0,0,55,9.4a2.94,2.94,0,0,0-1.78.44.87.87,0,0,0-.37.73v8.36H49.94V10.06A2.15,2.15,0,0,1,51,8a9.87,9.87,0,0,1,4.11-.79,5.31,5.31,0,0,1,2.4.48A4.2,4.2,0,0,1,59,9a5.25,5.25,0,0,1,.76,1.83A9.81,9.81,0,0,1,60,12.92V17a3.18,3.18,0,0,1-1.71,2Z"/>
      <path class="a" d="M67.42,19c-.42,0-.57-.19-.57-.69V8.91h2.56v8.22A2.83,2.83,0,0,1,67.9,19Zm.71-11.13a1.43,1.43,0,0,1-1.08-.48,1.57,1.57,0,0,1-.44-1.11,1.61,1.61,0,0,1,.44-1.11,1.42,1.42,0,0,1,2.15,0,1.58,1.58,0,0,1,.46,1.11,1.55,1.55,0,0,1-.46,1.11A1.42,1.42,0,0,1,68.13,7.84Z"/>
      <path class="b" d="M84.91,7.49A9.06,9.06,0,0,0,80.8,1.77a12,12,0,0,0-7-1.76A14.12,14.12,0,0,0,64,4.52a10.46,10.46,0,0,0-2.53,4.62,6.9,6.9,0,0,0,.78,5.13,12.25,12.25,0,0,1,4-9.71A12.13,12.13,0,0,1,76.35,1.73a9.32,9.32,0,0,1,5.06,2.55,7.19,7.19,0,0,1,2.13,5.08,9.09,9.09,0,0,1-2.45,5.7l-.24.24v2a10.4,10.4,0,0,0,3.34-4.15A9.46,9.46,0,0,0,84.91,7.49Z"/>
      <path class="c" d="M77.55,19c-.34,0-.54-.29-.54-.71V13.59a5.68,5.68,0,0,0-.44-2.36,1.46,1.46,0,0,0-1.49-.81,2.57,2.57,0,0,0-1.58.39.79.79,0,0,0-.34.66v7.47H70.6V13.57c0-.89,0-1.65,0-2.52a2.11,2.11,0,0,1,.91-1.92,8.67,8.67,0,0,1,3.72-.68,4.57,4.57,0,0,1,2.09.43A3.68,3.68,0,0,1,78.69,10a4.92,4.92,0,0,1,.69,1.64,9,9,0,0,1,.2,1.89v3.62A2.83,2.83,0,0,1,78.05,19Z"/>
    </g>
  </g>
</svg>
