<svg id="logo_login" xmlns="http://www.w3.org/2000/svg" width="215" height="80" viewBox="0 0 215 80">
  <metadata><?xpacket begin="﻿" id="W5M0MpCehiHzreSzNTczkc9d"?>
<x:xmpmeta xmlns:x="adobe:ns:meta/" x:xmptk="Adobe XMP Core 5.6-c142 79.160924, 2017/07/13-01:06:39        ">
   <rdf:RDF xmlns:rdf="http://www.w3.org/1999/02/22-rdf-syntax-ns#">
      <rdf:Description rdf:about=""/>
   </rdf:RDF>
</x:xmpmeta>                                                                                                              
<?xpacket end="w"?></metadata>
<defs>
    <style>
      .cls-1 {
        fill: #323333;
      }

      .cls-1, .cls-2, .cls-3 {
        fill-rule: evenodd;
      }

      .cls-2 {
        fill: #333;
      }

      .cls-3 {
        fill: #444;
        opacity: 0.9;
      }
    </style>
  </defs>
  <path id="logo" class="cls-1" d="M378.105,315.168l-2.336-25.782-7.711,16a4.007,4.007,0,0,1-3.664,2.353h-1.46a4.018,4.018,0,0,1-3.7-2.426l-7.27-15.938-2.8,25.791H339.7l5.573-40.276h10.046l8.431,22.271,8.917-22.271H382.8l4.808,40.276h-9.5Zm34.924,1.256c-7.362,0-13.086-2.54-17.014-7.551a23.323,23.323,0,0,1,.767-28.483c3.948-4.522,9.545-6.815,16.635-6.815A19.845,19.845,0,0,1,425.5,277.23a20.428,20.428,0,0,1,5.9,7.409l-9.508,3.94a11.9,11.9,0,0,0-2.959-4.141,9.212,9.212,0,0,0-6.021-2.09c-4.721,0-8.054,2.461-9.909,7.314a15.236,15.236,0,0,0-1.037,5.532,13.866,13.866,0,0,0,3.762,9.894,9.837,9.837,0,0,0,7.483,2.982,9,9,0,0,0,6.609-2.435,8.361,8.361,0,0,0,2.117-4.743l0.051-.324h-5.54a3.236,3.236,0,0,1-3.229-3.234v-1.048a3.235,3.235,0,0,1,3.229-3.234h17.237a32.306,32.306,0,0,1-1.477,10.455,18.779,18.779,0,0,1-7.386,9.672A21.207,21.207,0,0,1,413.029,316.424Zm27.014-1.256V274.892h10.043v31.982H463.3v8.294h-23.26Z" transform="translate(-294 -270)"/>
  <path id="_My_Good_Life" data-name=" My Good Life" class="cls-2" d="M345.747,341.308h1.68l3.44-8q0.1-.219.18-0.42c0.054-.133.1-0.273,0.15-0.419s0.1-.31.16-0.491,0.124-.4.19-0.67v12.4h1.9V329.288h-2.9l-3.9,9.439-4-9.439h-2.92v14.419h1.88v-12.4c0.08,0.241.154,0.454,0.22,0.641l0.18,0.5c0.054,0.146.107,0.29,0.16,0.43s0.114,0.283.18,0.429Zm15,0.2-2.9-8.741h-2.1l3.98,11.1-1.42,3.74,1.76,0.619,5.68-15.46h-2.04l-2.88,8.741h-0.08Zm23.8-5.72h-5.18v1.7h3.2v4.06a5.642,5.642,0,0,1-1.31.43,7.771,7.771,0,0,1-1.55.15,4.173,4.173,0,0,1-3.09-1.151,4.989,4.989,0,0,1-1.15-3.649v-1.66a5.236,5.236,0,0,1,1.07-3.651,3.832,3.832,0,0,1,2.95-1.149,6.2,6.2,0,0,1,1.92.29,5.967,5.967,0,0,1,1.84,1.03l1.02-1.6a6.719,6.719,0,0,0-2.2-1.16,8.811,8.811,0,0,0-2.58-.36,7.3,7.3,0,0,0-2.49.4,4.918,4.918,0,0,0-1.89,1.2,5.362,5.362,0,0,0-1.2,1.98,8.223,8.223,0,0,0-.42,2.76v2.18a8.115,8.115,0,0,0,.43,2.78,5.4,5.4,0,0,0,1.22,1.98,4.888,4.888,0,0,0,1.93,1.189,7.918,7.918,0,0,0,2.58.391,10.937,10.937,0,0,0,2.65-.321,6.81,6.81,0,0,0,2.25-.98v-6.839Zm3.45-1.93a4.944,4.944,0,0,0-1.31,3.69v1.34a4.95,4.95,0,0,0,1.31,3.679,5.549,5.549,0,0,0,7.14,0,4.954,4.954,0,0,0,1.31-3.679v-1.34a4.955,4.955,0,0,0-1.31-3.68A5.568,5.568,0,0,0,388,333.858Zm1.46,7.459a3.626,3.626,0,0,1-.811-2.59v-1.02a3.627,3.627,0,0,1,.811-2.589,3.04,3.04,0,0,1,4.219,0,3.631,3.631,0,0,1,.81,2.589v1.02a3.631,3.631,0,0,1-.81,2.59A3.04,3.04,0,0,1,389.458,341.317Zm10.94-7.459a4.944,4.944,0,0,0-1.31,3.69v1.34a4.95,4.95,0,0,0,1.31,3.679,5.549,5.549,0,0,0,7.14,0,4.954,4.954,0,0,0,1.31-3.679v-1.34a4.955,4.955,0,0,0-1.31-3.68A5.568,5.568,0,0,0,400.4,333.858Zm1.46,7.459a3.631,3.631,0,0,1-.81-2.59v-1.02a3.631,3.631,0,0,1,.81-2.589,3.041,3.041,0,0,1,4.22,0,3.631,3.631,0,0,1,.81,2.589v1.02a3.631,3.631,0,0,1-.81,2.59A3.041,3.041,0,0,1,401.858,341.317Zm17.13,1.031v1.359h1.86V328.588h-1.94v5.32a3.4,3.4,0,0,0-1.07-.91,3.916,3.916,0,0,0-1.99-.43,4.7,4.7,0,0,0-1.76.319,3.836,3.836,0,0,0-1.37.92,4.222,4.222,0,0,0-.891,1.481,5.765,5.765,0,0,0-.32,1.979v1.94a4.982,4.982,0,0,0,1.091,3.451,4.048,4.048,0,0,0,3.17,1.21,5.006,5.006,0,0,0,1.87-.34,2.545,2.545,0,0,0,1.31-1.18h0.04Zm-0.06-2.94a2.778,2.778,0,0,1-.23,1.15,2.65,2.65,0,0,1-.621.87,2.681,2.681,0,0,1-.909.55,3.256,3.256,0,0,1-1.12.19,2.341,2.341,0,0,1-1.92-.86,3.737,3.737,0,0,1-.7-2.42v-1.34a3.775,3.775,0,0,1,.69-2.42,2.332,2.332,0,0,1,1.93-.861,3.243,3.243,0,0,1,1.15.2,3.13,3.13,0,0,1,.92.531,2.372,2.372,0,0,1,.6.749,1.86,1.86,0,0,1,.211.841v2.82Zm11-10.12v14.419h8.88v-1.7h-6.9v-12.72h-1.98Zm11.38,3.479v10.94h1.939v-10.94h-1.939Zm-0.061-3.92v2.121h2.061v-2.121h-2.061Zm6.16,14.86h1.94v-9.28h2.88v-1.66h-2.88v-1a2.507,2.507,0,0,1,.12-0.859,1.217,1.217,0,0,1,.31-0.49,0.987,0.987,0,0,1,.45-0.23,2.4,2.4,0,0,1,.54-0.06,5.476,5.476,0,0,1,1.48.2l0.3-1.58a4.8,4.8,0,0,0-.89-0.2,7.327,7.327,0,0,0-1.07-.08,2.818,2.818,0,0,0-3.18,3.22v1.079h-1.8v1.66h1.8v9.28Zm13.761-8.73a2.783,2.783,0,0,1,.719,2.011v0.36h-5.479v-0.28a3.09,3.09,0,0,1,.21-1.15,2.6,2.6,0,0,1,.58-0.9,2.67,2.67,0,0,1,.879-0.579,2.9,2.9,0,0,1,1.111-.211A2.615,2.615,0,0,1,461.168,334.977Zm1.52,6.231a6.448,6.448,0,0,1-1.471.72,5.814,5.814,0,0,1-1.849.26,2.913,2.913,0,0,1-2.14-.81,3.187,3.187,0,0,1-.82-2.37v-0.08h7.36v-1.46a4.992,4.992,0,0,0-1.241-3.621,4.432,4.432,0,0,0-3.339-1.279,5.353,5.353,0,0,0-1.88.319,4.108,4.108,0,0,0-1.49.951,4.3,4.3,0,0,0-.98,1.57,6.212,6.212,0,0,0-.35,2.18v1.239a6.338,6.338,0,0,0,.37,2.281,4.154,4.154,0,0,0,1.02,1.57,4.075,4.075,0,0,0,1.52.9,5.924,5.924,0,0,0,1.89.291,7.634,7.634,0,0,0,2.5-.351,7.165,7.165,0,0,0,1.72-.849Z" transform="translate(-294 -270)"/>
  <path id="_" data-name="[" class="cls-3" d="M308.818,345.69H298.232V274.3h10.586V270H294.01v79.99h14.808v-4.3Zm185.386,4.3h14.808V270H494.2v4.3H504.79V345.69H494.2v4.3Z" transform="translate(-294 -270)"/>
</svg>
