<svg xmlns="http://www.w3.org/2000/svg" xmlns:xlink="http://www.w3.org/1999/xlink" viewBox="0 0 23.73 19.26">
  <defs>
    <style>
      .a {
        fill: url(#a);
      }

      .b {
        fill: #5f71d4;
      }

      .c {
        fill: #ac68cc;
      }

      .d {
        fill: #ff9730;
      }

      .e {
        fill: #3a424b;
        stroke: #3a424b;
        stroke-miterlimit: 10;
        stroke-width: 0.04px;
      }
    </style>
    <linearGradient id="a" data-name="무제 그라디언트 5" y1="8.7" x2="23.73" y2="8.7" gradientUnits="userSpaceOnUse">
      <stop offset="0" stop-color="#7d96ea"/>
      <stop offset="1" stop-color="#ac68cc"/>
    </linearGradient>
  </defs>
  <title>logo_2</title>
  <g>
    <path class="a" d="M23.57,7.49a9,9,0,0,0-4.12-5.72,12,12,0,0,0-7-1.76A14.14,14.14,0,0,0,2.69,4.52,10.32,10.32,0,0,0,.18,9.14c-.42,1.87-.11,5.11,1.07,6A11.17,11.17,0,0,1,4.92,4.56,12.15,12.15,0,0,1,15,1.73a9.38,9.38,0,0,1,5.07,2.55,7.18,7.18,0,0,1,2.12,5.08,9,9,0,0,1-2.45,5.7c-.11.13-.24.24-.36.37v2a10.29,10.29,0,0,0,3.47-4.23A9.54,9.54,0,0,0,23.57,7.49Z"/>
    <path class="b" d="M6.23,19.26c-.42,0-.57-.19-.57-.68V10.64H8.22v6.79a2.81,2.81,0,0,1-1.51,1.83Z"/>
    <path class="c" d="M16.36,19.26c-.35,0-.54-.26-.54-.69v-3c0-.92.14-3-1.94-3H12v6.74H9.41V10.64s3.37,0,5.06,0,3.2.56,3.71,2.92a8.21,8.21,0,0,1,.2,1.8v2.1a2.77,2.77,0,0,1-1.53,1.77Z"/>
    <g>
      <path class="d" d="M4.36,7.72s-.73,1.65.84,1.94c0,0-1.22.6-1.58-.33S4.36,7.72,4.36,7.72Z"/>
      <path class="d" d="M6.74,4.27l1.09.08-3,3.37Z"/>
      <polygon class="d" points="7.48 5.73 8.39 6.07 4.88 8.22 7.48 5.73"/>
      <polygon class="d" points="9.44 5.86 9.52 6.85 5.07 8.69 9.44 5.86"/>
      <path class="d" d="M9.24,7.54l-.19,1L5.33,9C5.6,9,8.89,7.67,9.24,7.54Z"/>
    </g>
    <path class="e" d="M12.53,6.4a1,1,0,0,1-.79.92h-.82a.46.46,0,0,1-.34-.14.49.49,0,0,1-.13-.36V5.54a.78.78,0,0,1,.14-.48.54.54,0,0,1,.47-.17h1A.43.43,0,0,1,12.4,5a.49.49,0,0,1,.13.37Zm-.43-.05V5.59c0-.21-.14-.21-.2-.21h-.78c-.15,0-.23,0-.23.24v1c0,.19,0,.22.17.22h.61A.51.51,0,0,0,12.1,6.35Zm2,.85a.18.18,0,0,1-.07.15.21.21,0,0,1-.16.06.23.23,0,0,1-.16-.06.18.18,0,0,1-.07-.15V4.81a.2.2,0,0,1,.07-.16.24.24,0,0,1,.16-.07.22.22,0,0,1,.16.07.2.2,0,0,1,.07.16Z"/>
    <g>
      <path class="e" d="M17.19,7.24a.26.26,0,0,0,0-.33A.18.18,0,0,0,17,6.84h-1.4c-.17,0-.16-.14-.16-.22V6.28h1.39A.17.17,0,0,0,17,6.21a.29.29,0,0,0,0-.35.17.17,0,0,0-.14-.07H15.48V5.48c0-.08,0-.26.24-.26h1.16A.19.19,0,0,0,17,5.14a.25.25,0,0,0,0-.31.16.16,0,0,0-.14-.08H15.64a.56.56,0,0,0-.43.19.66.66,0,0,0-.17.45V6.82a.45.45,0,0,0,.13.36.44.44,0,0,0,.34.14H17A.19.19,0,0,0,17.19,7.24Z"/>
      <path class="e" d="M17.6,6.3h.61v.9a.18.18,0,0,0,.07.15.24.24,0,0,0,.32,0,.18.18,0,0,0,.07-.15V4.81a.2.2,0,0,0-.07-.16.22.22,0,0,0-.32,0,.2.2,0,0,0-.07.16v1H17.6a.18.18,0,0,0-.15.07.23.23,0,0,0-.06.16.28.28,0,0,0,.06.18A.18.18,0,0,0,17.6,6.3Z"/>
    </g>
    <path class="e" d="M14.18,8.85l-.1.09a1.88,1.88,0,0,1-.23.16,1.55,1.55,0,0,1-.51.18,1,1,0,0,1-1-.35A1.32,1.32,0,0,1,12.15,8a.41.41,0,0,1,.07-.22.22.22,0,0,1,.35,0,.28.28,0,0,1,.06.16,1.94,1.94,0,0,0,0,.54.55.55,0,0,0,.54.32,1.05,1.05,0,0,0,.61-.26c.12-.09.22-.18.35-.13a.21.21,0,0,1,.11.16A.28.28,0,0,1,14.18,8.85Z"/>
    <path class="e" d="M18.78,8.85l-.1.09-.23.16a1.55,1.55,0,0,1-.51.18,1.07,1.07,0,0,1-1-.35A1.32,1.32,0,0,1,16.75,8a.4.4,0,0,1,.06-.22A.23.23,0,0,1,17,7.68a.22.22,0,0,1,.18.1.28.28,0,0,1,0,.16,1.94,1.94,0,0,0,.05.54.57.57,0,0,0,.55.32,1.11,1.11,0,0,0,.61-.26c.12-.09.21-.18.34-.13a.22.22,0,0,1,.12.16A.3.3,0,0,1,18.78,8.85Z"/>
  </g>
</svg>
