<?xml version="1.0" encoding="utf-8"?>
<!-- Generator: Adobe Illustrator 22.0.1, SVG Export Plug-In . SVG Version: 6.00 Build 0)  -->
<svg version="1.1" id="logo" xmlns="http://www.w3.org/2000/svg" xmlns:xlink="http://www.w3.org/1999/xlink" x="0px" y="0px"
	 viewBox="0 0 252.4 106.4" style="enable-background:new 0 0 252.4 106.4;" xml:space="preserve">
<style type="text/css">
	.st0{fill:#FF9730;}
	.st1{fill:#5F71D4;}
	.st2{fill:#AC68CC;}
	.st3{fill:#AC3E26;}
	.st4{fill:#402EAA;}
</style>
<g id="logo_1">
	<title>logo_color</title>
	<g>
		<g>
			<path class="st0" d="M93.5,103.3L88.6,37L68.3,79c-1.6,3.4-5,5.6-8.7,5.6H56c-3.8,0-7.3-2.2-8.8-5.8L28.1,37L22,103.3H0l12.1-100
				h24.4L58,60.2L80.8,3.3h24.6l10.2,100H93.5z"/>
			<polygon class="st1" points="195.1,103.3 195.1,3.3 219.2,3.3 219.2,83.6 252.4,83.6 252.4,103.3 			"/>
			<path class="st2" d="M155.8,106.4c-18.3,0-32.6-6.3-42.3-18.7c-7.4-9.4-11.1-20.9-11.1-34c0-14.5,4.4-26.9,13-36.8
				C125.2,5.7,139.1,0,156.7,0c11.8,0,21.9,3,30,9.1c5.5,4.1,10.4,10.1,14.4,17.8l-22.8,9.5c-1.7-3.8-4.2-7.3-7.3-10.1
				c-4.4-3.6-9.9-5.5-15.5-5.4c-12.1,0-20.7,6.3-25.4,18.7c-1.7,4.5-2.6,9.3-2.6,14.1c0,10,3.2,18.5,9.6,25.2
				c4.8,5.1,11.3,7.7,19.2,7.7c7.1,0,12.8-2.1,17-6.3c2.8-2.8,4.6-6.9,5.5-12.2l0.2-1.5h-14.6c-4.2,0-7.5-3.4-7.6-7.5v-2.6
				c0-4.2,3.4-7.5,7.6-7.5h39.8c0.1,20.8-1.6,38-19,49.5C176.9,103.7,167,106.4,155.8,106.4z"/>
		</g>
	</g>
</g>
<path class="st3" d="M102.4,53.7c0,13.1,3.7,24.6,11.1,34c0.2,0.2,0.4,0.5,0.6,0.7l-6.1-60.2C104.2,35.7,102.4,44.3,102.4,53.7z"/>
<path class="st4" d="M201.1,26.9c-1.8-3.5-3.8-6.6-6-9.4v11.9L201.1,26.9z"/>
<path class="st4" d="M204.2,49h-9.1v40.4C203.3,78.6,204.3,64.9,204.2,49z"/>
</svg>
