<?xml version="1.0" encoding="utf-8"?>
<!-- Generator: Adobe Illustrator 22.0.1, SVG Export Plug-In . SVG Version: 6.00 Build 0)  -->
<svg version="1.1" xmlns="http://www.w3.org/2000/svg" xmlns:xlink="http://www.w3.org/1999/xlink" x="0px" y="0px"
	 viewBox="0 0 349.7 109.6" style="enable-background:new 0 0 349.7 109.6;" xml:space="preserve">
<style type="text/css">
	.st0{fill:#FF9730;}
	.st1{fill:#5F71D4;}
	.st2{fill:#AC68CC;}
	.st3{fill:#AC3E26;}
	.st4{fill:#402EAA;}
	.st5{fill:#3A424B;}
	.st6{display:none;}
	.st7{display:inline;}
	.st8{font-family:'SegoePrint-Bold';}
	.st9{font-size:140px;}
	.st10{fill:none;}
</style>
<g id="logo">
	<g id="logo_1">
		<title>logo_color</title>
		<g>
			<g>
				<path class="st0" d="M93.5,105.6l-4.9-66.3l-20.3,42c-1.6,3.4-5,5.6-8.7,5.6H56c-3.8,0-7.3-2.2-8.8-5.8L28.1,39.3L22,105.6H0
					l12.1-100h24.4L58,62.5L80.8,5.6h24.6l10.2,100H93.5z"/>
				<polygon class="st1" points="195.1,105.6 195.1,5.6 219.2,5.6 219.2,85.9 252.4,85.9 252.4,105.6 				"/>
				<path class="st2" d="M155.8,108.7c-18.3,0-32.6-6.3-42.3-18.7c-7.4-9.4-11.1-20.9-11.1-34c0-14.5,4.4-26.9,13-36.8
					C125.2,8,139.1,2.3,156.7,2.3c11.8,0,21.9,3,30,9.1c5.5,4.1,10.4,10.1,14.4,17.8l-22.8,9.5c-1.7-3.8-4.2-7.3-7.3-10.1
					c-4.4-3.6-9.9-5.5-15.5-5.4c-12.1,0-20.7,6.3-25.4,18.7c-1.7,4.5-2.6,9.3-2.6,14.1c0,10,3.2,18.5,9.6,25.2
					c4.8,5.1,11.3,7.7,19.2,7.7c7.1,0,12.8-2.1,17-6.3c2.8-2.8,4.6-6.9,5.5-12.2l0.2-1.5h-14.6c-4.2,0-7.5-3.4-7.6-7.5v-2.6
					c0-4.2,3.4-7.5,7.6-7.5h39.8c0.1,20.8-1.6,38-19,49.5C176.9,106,167,108.7,155.8,108.7z"/>
			</g>
		</g>
	</g>
	<path class="st3" d="M102.4,56c0,13.1,3.7,24.6,11.1,34c0.2,0.2,0.4,0.5,0.6,0.7L108,30.5C104.2,38,102.4,46.6,102.4,56z"/>
	<path class="st4" d="M201.1,29.2c-1.8-3.5-3.8-6.6-6-9.4v11.9L201.1,29.2z"/>
	<path class="st4" d="M204.2,51.3h-9.1v40.4C203.3,80.9,204.3,67.2,204.2,51.3z"/>
</g>
<g id="레이어_3">
	<g>
		<path class="st5" d="M329,45.8c8.5,3,14,6.6,16.6,10.8c2.5,4.2,3.8,8.3,3.8,12.4c0,8.7-5.6,17.6-16.7,26.8
			c-11.2,9.2-22.9,13.8-35.1,13.8c-6.8,0-10.3-2.1-10.3-6.2c0-6.8,4.8-10.3,14.3-10.3h3.3c4.5,0,10.1-2.6,16.9-7.8
			c6.8-5.2,10.2-10.4,10.2-15.8c0-3.2-1.4-6.1-4.2-8.6c-2.8-2.5-6.5-3.8-11.1-3.8c-0.4,0-2.2,0.7-5.4,2.1c-3.3,1.4-5.7,2.1-7.2,2.1
			c-4.3,0-7.1-0.5-8.4-1.6c-1.3-1-1.9-3.2-1.9-6.4c0-2.2,4.6-5.2,13.9-9c5.3-2.1,10.6-5.7,15.9-10.8c5.3-5.1,7.9-9.4,7.9-12.9
			c0-4.5-3.3-6.8-9.8-6.8c-6.2,0-12.2,0.7-18.1,2.1c-5.9,1.4-9.2,3.1-9.8,5.1c-0.6,2-2.3,12.4-5.1,31.3c-2,14-3.7,27.8-4.8,41.9
			c-0.4,4.6-1.4,7.6-3.2,9s-3.8,2-6.1,2c-6.1,0-9.2-3.9-9.2-11.8c0-1.2,0.4-3.4,1.2-6.6c2-8.2,4-19.7,5.8-34.5
			c1.9-14.7,2.8-22.6,2.8-23.8c0-2.3-0.5-3.4-1.4-3.4l-1.8,0.1c-1.4,0.1-2.6-0.3-3.6-1.3c-1-1-1.7-1.9-2.1-2.8
			c-0.3-0.9-0.5-1.7-0.5-2.4c0-4.5,6.3-8.8,19-12.9C297.4,2,310.7,0,324.7,0c7.4,0,13.5,2,18.1,5.9c4.6,3.9,6.9,8.5,6.9,13.7
			c0,3.7-1.5,7.5-4.4,11.4C342.3,34.9,336.9,39.8,329,45.8z"/>
	</g>
</g>
<g id="레이어_2" class="st6">
	<g class="st7">
		<text transform="matrix(1 0 0 1 253.8695 103.0406)" class="st5 st8 st9">B</text>
	</g>
	<g class="st7">
		<path class="st10" d="M171,30.3c-4.3-3.6-9.6-5.4-15.5-5.4c-12.1,0-20.7,6.3-25.4,18.7c-1.8,4.5-2.6,9.3-2.6,14.1
			c0,10,3.2,18.5,9.6,25.2c4.8,5.1,11.3,7.7,19.2,7.7c7.1,0,12.8-2.1,17-6.3c2.8-2.8,4.6-6.9,5.5-12.2l0.2-1.5h-14.6
			c-4.2,0-7.5-3.4-7.5-7.5v-2.6c0-4.2,3.4-7.5,7.5-7.5c0,0,19,0,30.7,0V33.5l-16.8,6.9C176.2,36,173.7,32.6,171,30.3z"/>
		<path class="st0" d="M102.3,57.7c0-9.5,1.9-18.1,5.6-25.7l-2.5-24.7H80.8L58,64.2L36.5,7.3H12.1L0,107.3h22L28.1,41l19.1,41.9
			c1.6,3.6,4.9,5.8,8.8,5.8h3.7c3.8,0,7-2.1,8.7-5.6l20.3-42l4.9,66.2h22l-1.5-14.8c-0.2-0.3-0.4-0.5-0.6-0.8
			C106.1,82.3,102.3,70.8,102.3,57.7z"/>
		<path class="st1" d="M219.2,87.6V7.3h-24.1v14c2.2,2.8,4.2,6,6.1,9.6l-6.1,2.5v19.5c5.2,0,9,0,9,0c0.1,15.8-0.9,29.6-9,40.3v14.1
			h57.3V87.6H219.2z"/>
		<path class="st2" d="M164.4,52.9c-4.2,0-7.5,3.4-7.5,7.5v2.6c0,4.2,3.4,7.5,7.5,7.5H179l-0.2,1.5c-0.8,5.3-2.7,9.4-5.5,12.2
			c-4.2,4.2-9.9,6.3-17,6.3c-8,0-14.4-2.6-19.2-7.7c-6.4-6.7-9.6-15.2-9.6-25.2c0-4.8,0.9-9.6,2.6-14.1
			c4.8-12.4,13.3-18.7,25.4-18.7c5.9,0,11.2,1.8,15.5,5.4c2.8,2.3,5.2,5.7,7.4,10.1l16.8-6.9V21.4c-2.6-3.3-5.3-6.1-8.3-8.3
			c-8.1-6-18.3-9.1-30-9.1c-17.7,0-31.6,5.7-41.4,16.9c-3,3.4-5.5,7.1-7.4,11.1l6.1,60.4c9.7,11.9,23.8,18,41.7,18
			c11.3,0,21.1-2.7,29.3-8.1c4.2-2.7,7.4-5.8,10-9.2V52.9C183.4,52.9,164.4,52.9,164.4,52.9z"/>
		<path class="st3" d="M102.3,57.7c0,13.1,3.7,24.5,11.1,34c0.2,0.3,0.4,0.5,0.6,0.8l-6.1-60.4C104.2,39.6,102.3,48.2,102.3,57.7z"
			/>
		<path class="st4" d="M201.2,31c-1.9-3.6-3.9-6.8-6.1-9.6v12.1L201.2,31z"/>
		<path class="st4" d="M204.1,52.9c0,0-3.8,0-9,0v40.3C203.3,82.5,204.2,68.7,204.1,52.9z"/>
	</g>
</g>
</svg>
