<svg xmlns="http://www.w3.org/2000/svg" width="200" height="200"><path d="M199.831 199.831H-.069V-.069h199.9v199.9z" fill-rule="evenodd" fill="#edeff0"/><path d="M171.161 155.232c-3.821-5.668-7.9-6.6-44.591-23.533a13.522 13.522 0 0 1-4.363-2.748c-1.89-2.2-.633-4.807 3.854-9.087a30.538 30.538 0 0 0 3.5-3.731c4.628-6.349 7.117-11.544 8.592-17.931 2.5-10.875 2.6-23.422 2.367-34.263-.075-3.892-.161-8.3-1.636-12.458-1.816-5.182-5.944-10.142-12.266-14.741a58.234 58.234 0 0 0-7.8-4.773A44.622 44.622 0 0 0 100.49 27h-.971a44.312 44.312 0 0 0-18.2 4.971 57.212 57.212 0 0 0-7.806 4.769c-6.3 4.568-10.438 9.529-12.285 14.743-1.462 4.156-1.546 8.561-1.621 12.46-.234 10.834-.137 23.376 2.349 34.259 1.464 6.333 3.953 11.529 8.593 17.93a31.5 31.5 0 0 0 3.5 3.717c4.506 4.3 5.765 6.914 3.851 9.11a12.9 12.9 0 0 1-4.294 2.7l-.11.053c-32.473 15.016-40.346 17.319-44.548 23.523-3.7 5.472-4.946 48.653-4.937 52.177a2.582 2.582 0 0 0 2.626 2.506l72.134.082h2.109l.013-.006 72.471-.079a2.582 2.582 0 0 0 2.624-2.51c.012-3.684-1.095-46.673-4.827-52.173z" fill="#c0c2cc" fill-rule="evenodd"/></svg>