<svg xmlns="http://www.w3.org/2000/svg" width="200" height="200"><metadata><?xpacket begin="﻿" id="W5M0MpCehiHzreSzNTczkc9d"?><x:xmpmeta xmlns:x="adobe:ns:meta/" x:xmptk="Adobe XMP Core 5.6-c142 79.160924, 2017/07/13-01:06:39"><rdf:RDF xmlns:rdf="http://www.w3.org/1999/02/22-rdf-syntax-ns#"><rdf:Description/></rdf:RDF></x:xmpmeta><?xpacket end="w"?></metadata><path d="M199.831 199.831H-.069V-.069h199.9v199.9z" fill-rule="evenodd" fill="#edeff0"/><path data-name="man_face_line" d="M171.161 155.232c-3.821-5.668-7.9-6.6-44.591-23.533a13.522 13.522 0 0 1-4.363-2.748c-1.89-2.2-.633-4.807 3.854-9.087a30.538 30.538 0 0 0 3.5-3.731c4.628-6.349 7.117-11.544 8.592-17.931 2.5-10.875 2.6-23.422 2.367-34.263-.075-3.892-.161-8.3-1.636-12.458-1.816-5.182-5.944-10.142-12.266-14.741a58.234 58.234 0 0 0-7.8-4.773A44.622 44.622 0 0 0 100.49 27h-.971a44.312 44.312 0 0 0-18.2 4.971 57.212 57.212 0 0 0-7.806 4.769c-6.3 4.568-10.438 9.529-12.285 14.743-1.462 4.156-1.546 8.561-1.621 12.46-.234 10.834-.137 23.376 2.349 34.259 1.464 6.333 3.953 11.529 8.593 17.93a31.5 31.5 0 0 0 3.5 3.717c4.506 4.3 5.765 6.914 3.851 9.11a12.9 12.9 0 0 1-4.294 2.7l-.11.053c-32.473 15.016-40.346 17.319-44.548 23.523-3.7 5.472-4.946 48.653-4.937 52.177a2.582 2.582 0 0 0 2.626 2.506l72.134.082h2.109l.013-.006 72.471-.079a2.582 2.582 0 0 0 2.624-2.51c.012-3.684-1.095-46.673-4.827-52.173z" fill="#c0c2cc" fill-rule="evenodd"/><circle data-name="1" cx="144" cy="157" r="27" fill="#fff"/><path data-name="6" d="M139.951 119.692a35.259 35.259 0 1 0 35.259 35.259 35.258 35.258 0 0 0-35.259-35.259zm-8.746 42.276a13.545 13.545 0 0 0 2.686 4.6 11.39 11.39 0 0 0 4.065 2.869 13.054 13.054 0 0 0 5.133.979 16.917 16.917 0 0 0 3.757-.365 17.524 17.524 0 0 0 3.1-.967v-6.694h-4.376a2.143 2.143 0 0 1-1.514-.511 1.75 1.75 0 0 1-.546-1.31v-5.634h15.709v18.634a22.638 22.638 0 0 1-3.54 2.14 23.529 23.529 0 0 1-3.9 1.469 29.071 29.071 0 0 1-4.428.854 43.929 43.929 0 0 1-5.044.272 23.2 23.2 0 0 1-8.969-1.718 21.441 21.441 0 0 1-11.862-11.874 23.163 23.163 0 0 1-1.719-8.992 24.421 24.421 0 0 1 1.639-9.072 20.376 20.376 0 0 1 4.679-7.137 21.147 21.147 0 0 1 7.365-4.667 26.564 26.564 0 0 1 9.653-1.674 28.581 28.581 0 0 1 5.18.456 26.059 26.059 0 0 1 4.473 1.241 21.755 21.755 0 0 1 3.745 1.877 20.951 20.951 0 0 1 3.029 2.369l-2.972 4.519a3.383 3.383 0 0 1-1.014 1 2.438 2.438 0 0 1-1.285.363 3.526 3.526 0 0 1-1.879-.614c-.808-.479-1.571-.9-2.288-1.252a14.883 14.883 0 0 0-2.2-.866 14.171 14.171 0 0 0-2.367-.489 25.509 25.509 0 0 0-2.79-.148 12.813 12.813 0 0 0-5.179 1.014 11.229 11.229 0 0 0-3.926 2.868 12.984 12.984 0 0 0-2.5 4.439 18.077 18.077 0 0 0-.877 5.771 18.842 18.842 0 0 0 .962 6.25z" fill="#555" fill-rule="evenodd"/></svg>