<svg xmlns="http://www.w3.org/2000/svg" width="37.71" height="37" viewBox="0 0 37.71 37"><defs><style>.a{fill:#5f71d4;}.b{fill:#ac68cc;}</style></defs><title>nonmember172</title><path class="a" d="M23.3,9.91a11.11,11.11,0,0,0-.62-5.16A8.41,8.41,0,0,0,14.3,0,8.22,8.22,0,0,0,7.84,4a11,11,0,0,0-1,6.41,19.53,19.53,0,0,0,1,4.77c.87,2.49,2.35,3.13,2.45,4.06L3.33,22.4a4.67,4.67,0,0,0-1.75,1.16,4.6,4.6,0,0,0-.77,2.36C.4,29.21.13,31.72,0,35H19.94a12.06,12.06,0,0,1-1.76-2.49H2.62a62.82,62.82,0,0,1,.87-7.4C3.55,25,11,21.65,11,21.65a3.34,3.34,0,0,0,1.23-.84,2.55,2.55,0,0,0,.15-3A14.88,14.88,0,0,0,11,15.92c-2.21-2.69-1.69-9.22-1.4-10a4.77,4.77,0,0,1,2.16-2.42,7.47,7.47,0,0,1,3.33-1.1,7.53,7.53,0,0,1,3.26,1.11A4.68,4.68,0,0,1,20.49,5.8a14.41,14.41,0,0,1-.24,7.56,10.62,10.62,0,0,1-1.79,3.27,5.91,5.91,0,0,0-.86,1.26,2.68,2.68,0,0,0,.1,2.64,5.69,5.69,0,0,0,1.74,1.23,16,16,0,0,0,1.52-2,4.07,4.07,0,0,1-1-.56c-.17-.31.35-.93.36-.93C22.4,16.06,23.1,12.91,23.3,9.91Z"/><rect class="a" x="6.89" y="27.23" width="6.64" height="3.33"/><path class="b" d="M28.75,19.08a9,9,0,1,0,9,9A9,9,0,0,0,28.75,19.08ZM26.53,29.82A3.37,3.37,0,0,0,27.21,31a2.89,2.89,0,0,0,1,.73,3.32,3.32,0,0,0,1.31.25,4.51,4.51,0,0,0,.95-.09,4,4,0,0,0,.79-.25v-1.7H30.18a.56.56,0,0,1-.39-.13.44.44,0,0,1-.13-.33V28h4v4.73a6,6,0,0,1-.9.55,6.25,6.25,0,0,1-1,.37,7.4,7.4,0,0,1-1.12.22,12.79,12.79,0,0,1-1.28.06,5.9,5.9,0,0,1-2.28-.43,5.51,5.51,0,0,1-1.81-1.2,5.4,5.4,0,0,1-1.2-1.82,5.72,5.72,0,0,1-.44-2.28A6.17,6.17,0,0,1,24,25.93a5.07,5.07,0,0,1,1.18-1.81,5.35,5.35,0,0,1,1.88-1.19,6.81,6.81,0,0,1,2.45-.42,7.71,7.71,0,0,1,1.31.11,7.27,7.27,0,0,1,1.14.32,4.45,4.45,0,0,1,1,.48,4.27,4.27,0,0,1,.77.6L33,25.17a1,1,0,0,1-.26.25.63.63,0,0,1-.33.09.89.89,0,0,1-.47-.15,5.85,5.85,0,0,0-.59-.32,4.2,4.2,0,0,0-.55-.22,3.87,3.87,0,0,0-.61-.13c-.21,0-.44,0-.7,0a3.27,3.27,0,0,0-1.32.25,3,3,0,0,0-1,.73,3.35,3.35,0,0,0-.63,1.13,4.53,4.53,0,0,0-.23,1.47A4.8,4.8,0,0,0,26.53,29.82Z"/></svg>