<svg xmlns="http://www.w3.org/2000/svg" xmlns:xlink="http://www.w3.org/1999/xlink" viewBox="0 0 83 118"><defs><style>.a{isolation:isolate;}.b{fill:#edeff0;mix-blend-mode:color;}.c{fill:url(#a);}.d{fill:#999;}.e{fill:#9a9a9a;}.f{fill:#979797;}.g{fill:#424242;stroke:#3a424b;stroke-miterlimit:10;stroke-width:0.04px;}</style><linearGradient id="a" x1="18.95" y1="54.47" x2="64.05" y2="54.47" gradientUnits="userSpaceOnUse"><stop offset="0" stop-color="#b3b3b3"/><stop offset="1" stop-color="#a0a0a0"/></linearGradient></defs><title>poster_space</title><g class="a"><rect class="b" width="83" height="118"/><path class="c" d="M63.73,52.15A17.14,17.14,0,0,0,55.92,41.3,22.85,22.85,0,0,0,42.65,38a26.82,26.82,0,0,0-18.58,8.57,19.67,19.67,0,0,0-4.78,8.78c-.79,3.54-.2,9.7,2.05,11.46-1.34-9.33,1.88-15.6,7-20.18a23.11,23.11,0,0,1,19.15-5.36,17.74,17.74,0,0,1,9.63,4.84,13.64,13.64,0,0,1,4,9.65c0,4-2,7.81-4.66,10.83-.21.24-.46.46-.69.7V71a19.69,19.69,0,0,0,6.6-8A18.13,18.13,0,0,0,63.73,52.15Z"/><path class="d" d="M30.79,74.52c-.8,0-1.08-.36-1.08-1.29V58.15h4.86V71c0,1.14-2.09,3.48-2.87,3.48Z"/><path class="e" d="M50,74.52c-.67,0-1-.5-1-1.31V67.43c0-1.74.27-5.72-3.67-5.72H41.7s0,1,0,1.55V74.52H36.83V58.15s6.41-.08,9.62.05,6.07,1.06,7,5.54a15.61,15.61,0,0,1,.38,3.43v4c0,1.14-2.16,3.37-2.91,3.37Z"/><path class="f" d="M27.24,52.6c-.07,0-1.38,3.12,1.6,3.68,0,0-2.32,1.14-3-.62C25.26,54.15,27.24,52.6,27.24,52.6Z"/><path class="f" d="M31.77,46.05l2.06.15-5.66,6.4Z"/><polygon class="f" points="33.17 48.81 34.9 49.45 28.23 53.54 33.17 48.81"/><polygon class="f" points="36.9 49.06 37.04 50.94 28.58 54.43 36.9 49.06"/><path class="f" d="M36.51,52.25l-.35,1.87-7.08,1C29.59,55.11,35.85,52.5,36.51,52.25Z"/><path class="g" d="M42.76,50.09a1.85,1.85,0,0,1-1.49,1.74H39.7a.88.88,0,0,1-.64-.25,1,1,0,0,1-.24-.7V48.45a1.48,1.48,0,0,1,.25-.9,1,1,0,0,1,.89-.34h1.87a.87.87,0,0,1,.69.27,1,1,0,0,1,.24.71Zm-.82-.1V48.55c0-.4-.25-.41-.37-.41H40.09c-.29,0-.45,0-.45.47V50.5c0,.36.1.42.32.42h1.18C41.58,50.92,41.94,50.38,41.94,50Zm3.75,1.62a.35.35,0,0,1-.13.28.41.41,0,0,1-.3.12.45.45,0,0,1-.32-.12.38.38,0,0,1-.12-.28V47.07a.43.43,0,0,1,.12-.31.45.45,0,0,1,.32-.12.41.41,0,0,1,.3.12.4.4,0,0,1,.13.31Z"/><path class="g" d="M51.62,51.68a.48.48,0,0,0,0-.62.37.37,0,0,0-.28-.14H48.67c-.32,0-.31-.26-.31-.42v-.65H51a.33.33,0,0,0,.28-.13.57.57,0,0,0,0-.66.36.36,0,0,0-.28-.13H48.36v-.59c0-.15,0-.5.47-.5H51a.31.31,0,0,0,.26-.15.5.5,0,0,0,0-.59A.31.31,0,0,0,51,47H48.67a1,1,0,0,0-.81.36,1.24,1.24,0,0,0-.33.87v2.7a.94.94,0,0,0,.25.7.87.87,0,0,0,.64.25h2.92A.35.35,0,0,0,51.62,51.68Z"/><path class="g" d="M52.4,49.9h1.15v1.71a.39.39,0,0,0,.13.28A.45.45,0,0,0,54,52a.44.44,0,0,0,.3-.12.35.35,0,0,0,.13-.28V47.07a.4.4,0,0,0-.13-.31.44.44,0,0,0-.3-.12.45.45,0,0,0-.32.12.44.44,0,0,0-.13.31V49H52.4a.39.39,0,0,0-.29.13.52.52,0,0,0-.11.32.58.58,0,0,0,.11.34A.36.36,0,0,0,52.4,49.9Z"/><path class="g" d="M45.9,54.74l-.19.17a4.15,4.15,0,0,1-.43.3,3,3,0,0,1-1,.35,2,2,0,0,1-1.83-.66A2.57,2.57,0,0,1,42,53.08a.86.86,0,0,1,.13-.41.41.41,0,0,1,.67,0A.76.76,0,0,1,43,53,3.47,3.47,0,0,0,43,54a1.08,1.08,0,0,0,1,.61,2.14,2.14,0,0,0,1.16-.49c.22-.18.41-.34.65-.24S46.2,54.47,45.9,54.74Z"/><path class="g" d="M54.64,54.74l-.2.17a4.15,4.15,0,0,1-.43.3,2.8,2.8,0,0,1-1,.35,2,2,0,0,1-1.83-.66,2.51,2.51,0,0,1-.42-1.82.75.75,0,0,1,.12-.41.42.42,0,0,1,.68,0,.75.75,0,0,1,.1.32,3.84,3.84,0,0,0,.09,1,1.08,1.08,0,0,0,1,.61A2.08,2.08,0,0,0,54,54.16c.22-.18.41-.34.65-.24S54.93,54.47,54.64,54.74Z"/></g></svg>