<svg xmlns="http://www.w3.org/2000/svg" width="200" height="200"><metadata><?xpacket begin="﻿" id="W5M0MpCehiHzreSzNTczkc9d"?><x:xmpmeta xmlns:x="adobe:ns:meta/" x:xmptk="Adobe XMP Core 5.6-c142 79.160924, 2017/07/13-01:06:39"><rdf:RDF xmlns:rdf="http://www.w3.org/1999/02/22-rdf-syntax-ns#"><rdf:Description/></rdf:RDF></x:xmpmeta><?xpacket end="w"?></metadata><path d="M199.831 199.831H-.069V-.069h199.9v199.9z" fill-rule="evenodd" fill="#edeff0"/><path d="M168.983 158.288c-1.6-4.194-5.046-6.551-7.88-8.143-.73-.427-1.344-.76-1.9-1.029-11.274-5.89-21.763-11.036-34.79-16.74l-.224-.1-.182-.169c-1.053-1-2.042-3.941-2.314-5.123l-.34-1.473 1.494-.24a10.142 10.142 0 0 1 1.358-.125c10.071-.468 19.278-1.694 29.056-6.35a2.541 2.541 0 0 0 1.3-1.444c.221-.645.541-1.725-.11-1.693-5.07.274-8.481-3.97-9.533-6.847-.482-1.322 2.262 5.3 10 2.954-5.521-4.979-9.394-13.959-10.638-20.238a150.39 150.39 0 0 1-1.991-15.454l-.263-2.689c-1.264-12.616-3.613-25.554-12.176-34.711-6.935-7.4-17.651-11.651-29.4-11.651h-.9c-11.746 0-22.462 4.247-29.4 11.651-8.56 9.158-10.909 22.095-12.173 34.711l-.263 2.689a150.174 150.174 0 0 1-1.992 15.454c-1.244 6.279-5.117 15.259-10.637 20.238 7.734 2.349 10.478-4.276 10-2.954-1.052 2.877-4.463 7.121-9.533 6.847-.651-.032-.331 1.048-.11 1.693a2.541 2.541 0 0 0 1.3 1.444c9.779 4.656 18.985 5.882 29.056 6.35a10.15 10.15 0 0 1 1.359.125l1.493.24-.339 1.473c-.273 1.182-1.262 4.128-2.314 5.123l-.182.169-.224.1c-13.027 5.7-23.516 10.85-34.79 16.74-.558.269-1.172.6-1.9 1.029-2.834 1.592-6.277 3.949-7.88 8.143-4.746 12.55-7.871 54.449-5.489 57.3 2.886.68 35.086 1.1 74.468 1.3 39.382-.2 71.582-.623 74.468-1.3 2.386-2.851-.739-44.75-5.485-57.3z" fill="#c8c0cc" fill-rule="evenodd"/><circle cx="144" cy="157" r="27" fill="#fff"/><path d="M139.951 119.692a35.259 35.259 0 1 0 35.259 35.259 35.258 35.258 0 0 0-35.259-35.259zm-8.746 42.276a13.545 13.545 0 0 0 2.686 4.6 11.39 11.39 0 0 0 4.065 2.869 13.054 13.054 0 0 0 5.133.979 16.917 16.917 0 0 0 3.757-.365 17.524 17.524 0 0 0 3.1-.967v-6.694h-4.376a2.143 2.143 0 0 1-1.514-.511 1.75 1.75 0 0 1-.546-1.31v-5.634h15.709v18.634a22.638 22.638 0 0 1-3.54 2.14 23.529 23.529 0 0 1-3.9 1.469 29.071 29.071 0 0 1-4.428.854 43.929 43.929 0 0 1-5.044.272 23.2 23.2 0 0 1-8.969-1.718 21.441 21.441 0 0 1-11.862-11.874 23.163 23.163 0 0 1-1.719-8.992 24.421 24.421 0 0 1 1.639-9.072 20.376 20.376 0 0 1 4.679-7.137 21.147 21.147 0 0 1 7.365-4.667 26.564 26.564 0 0 1 9.653-1.674 28.581 28.581 0 0 1 5.18.456 26.059 26.059 0 0 1 4.473 1.241 21.755 21.755 0 0 1 3.745 1.877 20.951 20.951 0 0 1 3.029 2.369l-2.972 4.519a3.383 3.383 0 0 1-1.014 1 2.438 2.438 0 0 1-1.285.363 3.526 3.526 0 0 1-1.879-.614c-.808-.479-1.571-.9-2.288-1.252a14.883 14.883 0 0 0-2.2-.866 14.171 14.171 0 0 0-2.367-.489 25.509 25.509 0 0 0-2.79-.148 12.813 12.813 0 0 0-5.179 1.014 11.229 11.229 0 0 0-3.926 2.868 12.984 12.984 0 0 0-2.5 4.439 18.077 18.077 0 0 0-.877 5.771 18.842 18.842 0 0 0 .962 6.25z" fill="#555" fill-rule="evenodd"/></svg>