<svg xmlns="http://www.w3.org/2000/svg" width="200" height="200"><path d="M199.831 199.831H-.069V-.069h199.9v199.9z" fill-rule="evenodd" fill="#edeff0"/><path d="M168.983 158.288c-1.6-4.194-5.046-6.551-7.88-8.143-.73-.427-1.344-.76-1.9-1.029-11.274-5.89-21.763-11.036-34.79-16.74l-.224-.1-.182-.169c-1.053-1-2.042-3.941-2.314-5.123l-.34-1.473 1.494-.24a10.142 10.142 0 0 1 1.358-.125c10.071-.468 19.278-1.694 29.056-6.35a2.541 2.541 0 0 0 1.3-1.444c.221-.645.541-1.725-.11-1.693-5.07.274-8.481-3.97-9.533-6.847-.482-1.322 2.262 5.3 10 2.954-5.521-4.979-9.394-13.959-10.638-20.238a150.39 150.39 0 0 1-1.991-15.454l-.263-2.689c-1.264-12.616-3.613-25.554-12.176-34.711-6.935-7.4-17.651-11.651-29.4-11.651h-.9c-11.746 0-22.462 4.247-29.4 11.651-8.56 9.158-10.909 22.095-12.173 34.711l-.263 2.689a150.174 150.174 0 0 1-1.992 15.454c-1.244 6.279-5.117 15.259-10.637 20.238 7.734 2.349 10.478-4.276 10-2.954-1.052 2.877-4.463 7.121-9.533 6.847-.651-.032-.331 1.048-.11 1.693a2.541 2.541 0 0 0 1.3 1.444c9.779 4.656 18.985 5.882 29.056 6.35a10.15 10.15 0 0 1 1.359.125l1.493.24-.339 1.473c-.273 1.182-1.262 4.128-2.314 5.123l-.182.169-.224.1c-13.027 5.7-23.516 10.85-34.79 16.74-.558.269-1.172.6-1.9 1.029-2.834 1.592-6.277 3.949-7.88 8.143-4.746 12.55-7.871 54.449-5.489 57.3 2.886.68 35.086 1.1 74.468 1.3 39.382-.2 71.582-.623 74.468-1.3 2.386-2.851-.739-44.75-5.485-57.3z" fill="#c8c0cc" fill-rule="evenodd"/></svg>